<svg width="64" height="64" viewBox="0 0 64 64" fill="none" xmlns="http://www.w3.org/2000/svg">
<path d="M53.2662 30.6667C52.943 25.4862 50.7393 20.6019 47.0689 16.9316C43.3985 13.2612 38.5142 11.0574 33.3337 10.7342V2.66675H30.667V10.7342C25.4864 11.0574 20.6022 13.2612 16.9318 16.9316C13.2615 20.6019 11.0577 25.4862 10.7345 30.6667H2.66699V33.3334H10.7345C11.0577 38.5139 13.2615 43.3982 16.9318 47.0686C20.6022 50.739 25.4864 52.9427 30.667 53.2659V61.3334H33.3337V53.2659C38.5142 52.9427 43.3985 50.739 47.0689 47.0686C50.7393 43.3982 52.943 38.5139 53.2662 33.3334H61.3337V30.6667H53.2662ZM32.0003 50.6667C28.3083 50.6667 24.6994 49.5721 21.6297 47.5209C18.5599 45.4697 16.1674 42.5545 14.7546 39.1435C13.3417 35.7326 12.9721 31.9793 13.6923 28.3585C14.4126 24.7374 16.1904 21.4113 18.801 18.8007C21.4116 16.1902 24.7377 14.4123 28.3587 13.6921C31.9795 12.9718 35.7329 13.3415 39.1438 14.7543C42.5547 16.1672 45.4699 18.5597 47.5211 21.6294C49.5723 24.6991 50.667 28.3081 50.667 32.0001C50.6614 36.9491 48.6929 41.6937 45.1934 45.1931C41.6939 48.6926 36.9494 50.6611 32.0003 50.6667ZM32.0003 30.0001C31.6049 30.0001 31.2182 30.1174 30.8891 30.3371C30.5603 30.5569 30.3041 30.8691 30.1526 31.2347C30.0011 31.6001 29.9617 32.0022 30.0387 32.3902C30.1161 32.7782 30.3065 33.1345 30.5862 33.4142C30.8659 33.6939 31.2222 33.8843 31.6102 33.9617C31.9982 34.0387 32.4003 33.9993 32.7657 33.8478C33.1313 33.6963 33.4435 33.4401 33.6633 33.1113C33.883 32.7822 34.0003 32.3955 34.0003 32.0001C34.0003 31.4697 33.7897 30.9609 33.4145 30.5859C33.0395 30.2107 32.5307 30.0001 32.0003 30.0001Z" fill="#6667AC"/>
</svg>
