<svg width="64" height="64" viewBox="0 0 64 64" fill="none" xmlns="http://www.w3.org/2000/svg">
<path d="M31.9998 48.8205C33.9913 48.8389 35.943 48.2635 37.6054 47.1672C39.2681 46.0709 40.566 44.5037 41.3332 42.6661H22.6666C23.4339 44.5037 24.7318 46.0707 26.3944 47.1669C28.0569 48.2632 30.0086 48.8389 31.9998 48.8205ZM37.2081 44.7995C35.7468 46.0189 33.9036 46.6869 31.9998 46.6869C30.0964 46.6869 28.2532 46.0189 26.7916 44.7995H37.2081ZM39.9998 32.6661C39.6044 32.6661 39.2177 32.7832 38.8886 33.0032C38.5598 33.2229 38.3036 33.5352 38.1521 33.9005C38.0006 34.2661 37.9612 34.6683 38.0382 35.0563C38.1156 35.4443 38.306 35.8005 38.5857 36.0803C38.8654 36.36 39.2217 36.5504 39.6097 36.6275C39.9977 36.7048 40.3998 36.6651 40.7652 36.5139C41.1308 36.3624 41.443 36.1061 41.6628 35.7771C41.8825 35.4483 41.9998 35.0616 41.9998 34.6661C41.9998 34.1355 41.7892 33.6269 41.4142 33.2517C41.039 32.8768 40.5302 32.6661 39.9998 32.6661ZM25.9999 34.6661C25.9999 34.2704 25.8826 33.8837 25.6628 33.5549C25.4431 33.2259 25.1307 32.9696 24.7653 32.8181C24.3998 32.6669 23.9977 32.6272 23.6097 32.7045C23.2218 32.7816 22.8654 32.972 22.5857 33.2517C22.306 33.5315 22.1155 33.888 22.0383 34.2757C21.9612 34.6637 22.0008 35.0659 22.1521 35.4315C22.3035 35.7968 22.5599 36.1091 22.8888 36.3291C23.2176 36.5488 23.6043 36.6661 23.9999 36.6661C24.5303 36.6661 25.039 36.4552 25.4141 36.0803C25.7892 35.7051 25.9999 35.1965 25.9999 34.6661ZM53.1668 26.7837C52.5468 21.6056 50.0502 16.8345 46.1497 13.373C42.2492 9.91157 37.215 8 31.9998 8C26.7849 8 21.7508 9.91157 17.8501 13.373C13.9495 16.8345 11.453 21.6056 10.833 26.7837C8.89213 27.0613 7.12202 28.0453 5.86192 29.5475C4.60178 31.0493 3.94032 32.9637 4.00424 34.9232C4.06816 36.8827 4.85301 38.7499 6.20834 40.1664C7.56368 41.5832 9.39416 42.4499 11.349 42.6005C12.5144 47.1933 15.1778 51.2669 18.9178 54.1765C22.6579 57.0861 27.2614 58.6659 31.9998 58.6659C36.7385 58.6659 41.342 57.0861 45.082 54.1765C48.822 51.2669 51.4854 47.1933 52.6508 42.6005C54.6057 42.4499 56.4361 41.5832 57.7916 40.1664C59.1468 38.7499 59.9316 36.8827 59.9956 34.9232C60.0596 32.9637 59.398 31.0493 58.138 29.5475C56.8777 28.0453 55.1076 27.0613 53.1668 26.7837ZM52.4329 39.9427L50.5358 40.0981L50.0665 41.9429C49.0465 45.9605 46.7161 49.5235 43.4441 52.0685C40.1721 54.6136 36.1452 55.9952 31.9998 55.9952C27.8548 55.9952 23.8277 54.6136 20.5557 52.0685C17.2837 49.5235 14.9534 45.9605 13.9332 41.9429L13.4639 40.0981L11.5668 39.9427C10.2645 39.8456 9.04408 39.2704 8.14005 38.328C7.23605 37.3856 6.71229 36.1424 6.66949 34.8371C6.62666 33.532 7.06784 32.2571 7.90816 31.2573C8.74845 30.2576 9.92864 29.604 11.2218 29.4219L13.2394 29.1245L13.481 27.0997C13.8809 23.7671 15.1728 20.6043 17.2204 17.9448C19.2681 15.2853 21.9955 13.2278 25.1151 11.9892C24.3924 13.2026 24.0074 14.5871 23.9999 15.9994C23.9999 17.5816 24.4691 19.1283 25.3482 20.4439C26.2272 21.7594 27.4766 22.7848 28.9385 23.3903C30.4004 23.9958 32.0086 24.1542 33.5606 23.8455C35.1124 23.5369 36.538 22.775 37.6566 21.6562L35.7692 19.7687C35.1492 20.3894 34.3854 20.8475 33.546 21.1025C32.7065 21.3575 31.8172 21.4014 30.9566 21.2304C30.0961 21.0594 29.291 20.6788 28.6129 20.1222C27.9348 19.5657 27.4041 18.8504 27.0686 18.0398C26.7329 17.2292 26.6024 16.3483 26.6886 15.4752C26.7748 14.6021 27.075 13.7638 27.5628 13.0345C28.0505 12.3052 28.7108 11.7075 29.4846 11.2944C30.2585 10.8812 31.1225 10.6654 31.9998 10.666C36.5622 10.667 40.966 12.3397 44.3785 15.3679C47.791 18.3961 49.9756 22.5698 50.519 27.0997L50.7606 29.1245L52.778 29.4219C54.0713 29.604 55.2513 30.2576 56.0916 31.2573C56.9321 32.2571 57.3732 33.532 57.3302 34.8371C57.2876 36.1424 56.7638 37.3856 55.8598 38.328C54.9558 39.2704 53.7353 39.8456 52.4329 39.9427Z" fill="#6667AC"/>
</svg>
