<svg width="54" height="54" viewBox="0 0 54 54" fill="none" xmlns="http://www.w3.org/2000/svg">
<path d="M16.6295 36.0506L18.5151 37.9362C20.7657 35.6861 23.818 34.4218 27.0007 34.4218C30.1833 34.4218 33.2356 35.6861 35.4863 37.9362L37.3719 36.0506C34.6212 33.3002 30.8905 31.7552 27.0007 31.7552C23.1108 31.7552 19.3802 33.3002 16.6295 36.0506ZM35.0007 18.3333C34.526 18.3333 34.062 18.4741 33.6673 18.7378C33.2727 19.0015 32.9649 19.3763 32.7833 19.8149C32.6017 20.2534 32.5543 20.736 32.6468 21.2015C32.7393 21.6672 32.9678 22.0946 33.3036 22.4304C33.6393 22.7661 34.0668 22.9946 34.5324 23.0872C34.998 23.1797 35.4807 23.1322 35.9191 22.9506C36.3577 22.769 36.7324 22.4613 36.9961 22.0666C37.2598 21.672 37.4007 21.208 37.4007 20.7333C37.4007 20.0968 37.1479 19.4864 36.6977 19.0362C36.2476 18.5862 35.6372 18.3333 35.0007 18.3333ZM19.0007 23.1333C19.4753 23.1333 19.9393 22.9925 20.334 22.7288C20.7287 22.465 21.0363 22.0904 21.218 21.6518C21.3996 21.2132 21.4472 20.7306 21.3545 20.2651C21.2619 19.7996 21.0334 19.3719 20.6977 19.0362C20.3621 18.7006 19.9344 18.472 19.4689 18.3794C19.0033 18.2868 18.5208 18.3344 18.0822 18.516C17.6437 18.6977 17.2688 19.0053 17.0051 19.4C16.7414 19.7946 16.6007 20.2586 16.6007 20.7333C16.6007 21.3698 16.8535 21.9802 17.3036 22.4304C17.7537 22.8805 18.3641 23.1333 19.0007 23.1333ZM27.0007 0.333313C21.7265 0.333313 16.5708 1.89729 12.1855 4.82745C7.80015 7.75763 4.38223 11.9224 2.36388 16.7951C0.345533 21.6677 -0.182546 27.0296 0.846387 32.2024C1.87532 37.3752 4.41508 42.1266 8.14449 45.8562C11.8739 49.5856 16.6254 52.1253 21.7983 53.1544C26.9711 54.1832 32.3329 53.6552 37.2055 51.6368C42.0783 49.6184 46.243 46.2005 49.1732 41.8152C52.1033 37.4298 53.6673 32.2741 53.6673 27C53.6673 23.4981 52.9774 20.0304 51.6374 16.7951C50.2974 13.5597 48.3332 10.62 45.8569 8.14379C43.3806 5.66758 40.4409 3.70331 37.2055 2.36318C33.9703 1.02307 30.5025 0.333313 27.0007 0.333313ZM27.0007 51C22.254 51 17.6137 49.5925 13.667 46.9552C9.7202 44.3181 6.64407 40.5698 4.82756 36.1845C3.01105 31.7989 2.53577 26.9733 3.46183 22.3178C4.38785 17.6623 6.67364 13.3859 10.0301 10.0294C13.3866 6.67297 17.6629 4.38718 22.3185 3.46113C26.974 2.5351 31.7996 3.01038 36.1852 4.82686C40.5705 6.64337 44.3188 9.71953 46.9558 13.6663C49.5932 17.6131 51.0006 22.2533 51.0006 27C50.9937 33.3629 48.4628 39.4634 43.9633 43.9626C39.4641 48.4621 33.3636 50.993 27.0007 51Z" fill="#FF0000"/>
</svg>
