<svg width="64" height="64" viewBox="0 0 64 64" fill="none" xmlns="http://www.w3.org/2000/svg">
<path d="M32 8.10657L0 26.6666L13.3333 34.4V43.4917C13.3333 44.896 13.703 46.2754 14.4051 47.4917C15.1073 48.708 16.1172 49.7178 17.3333 50.4199L32 58.8877L46.6667 50.4199C47.8829 49.7178 48.8928 48.708 49.5949 47.4917C50.2971 46.2754 50.6667 44.896 50.6667 43.4917V34.4L61.3333 28.2133V45.3333H64V26.6666L32 8.10657ZM32 11.1892L56.3861 25.3332H32V28H56.3861L32 42.144L5.3152 26.6666L32 11.1892ZM48 43.4917C47.9987 44.4274 47.7515 45.3466 47.2835 46.157C46.8155 46.9677 46.1432 47.641 45.3333 48.1104L32 55.8085L18.6667 48.1104C17.8569 47.641 17.1844 46.9677 16.7165 46.157C16.2485 45.3466 16.0014 44.4274 16 43.4917V35.9466L32 45.2266L48 35.9466V43.4917Z" fill="#6667AC"/>
</svg>
