<svg width="64" height="64" viewBox="0 0 64 64" fill="none" xmlns="http://www.w3.org/2000/svg">
<path d="M53.2662 30.6666C52.943 25.4861 50.7393 20.6018 47.0689 16.9315C43.3985 13.2611 38.5142 11.0573 33.3337 10.7341V2.66663H30.667V10.7341C25.4864 11.0573 20.6022 13.2611 16.9318 16.9315C13.2615 20.6018 11.0577 25.4861 10.7345 30.6666H2.66699V33.3333H10.7345C11.0577 38.5138 13.2615 43.3981 16.9318 47.0685C20.6022 50.7389 25.4864 52.9426 30.667 53.2658V61.3333H33.3337V53.2658C38.5142 52.9426 43.3985 50.7389 47.0689 47.0685C50.7393 43.3981 52.943 38.5138 53.2662 33.3333H61.3337V30.6666H53.2662ZM32.0003 50.6666C28.3083 50.6666 24.6994 49.572 21.6297 47.5208C18.5599 45.4696 16.1674 42.5544 14.7546 39.1434C13.3417 35.7325 12.9721 31.9792 13.6923 28.3584C14.4126 24.7373 16.1904 21.4112 18.801 18.8006C21.4116 16.19 24.7377 14.4122 28.3587 13.692C31.9795 12.9717 35.7329 13.3414 39.1438 14.7542C42.5547 16.1671 45.4699 18.5596 47.5211 21.6293C49.5723 24.699 50.667 28.308 50.667 32C50.6614 36.949 48.6929 41.6936 45.1934 45.193C41.6939 48.6925 36.9494 50.661 32.0003 50.6666ZM32.0003 30C31.6049 30 31.2182 30.1173 30.8891 30.337C30.5603 30.5568 30.3041 30.869 30.1526 31.2346C30.0011 31.6 29.9617 32.0021 30.0387 32.3901C30.1161 32.7781 30.3065 33.1344 30.5862 33.4141C30.8659 33.6938 31.2222 33.8842 31.6102 33.9616C31.9982 34.0386 32.4003 33.9992 32.7657 33.8477C33.1313 33.6962 33.4435 33.44 33.6633 33.1112C33.883 32.7821 34.0003 32.3954 34.0003 32C34.0003 31.4696 33.7897 30.9608 33.4145 30.5858C33.0395 30.2106 32.5307 30 32.0003 30Z" fill="#6667AC"/>
</svg>
