<svg width="131" height="94" viewBox="0 0 131 94" fill="none" xmlns="http://www.w3.org/2000/svg">
<g opacity="0.5">
<path d="M50 23.2038V32H74H98V23.2038L74 0L50 23.2038Z" fill="#53BA14"/>
<path d="M34 23.2038V32H58H82V23.2038L58 0L34 23.2038Z" fill="#6667AC"/>
<path fill-rule="evenodd" clip-rule="evenodd" d="M66.266 7.76245L50 23.1931V32.1436H57.643H82.532V23.1931L66.266 7.76245Z" fill="#C8C8C8"/>
<path d="M15.16 70.6C12.28 70.6 9.79333 69.9733 7.7 68.72C5.62 67.4667 4.01333 65.7133 2.88 63.46C1.76 61.2067 1.2 58.5867 1.2 55.6C1.2 52.6133 1.76 49.9933 2.88 47.74C4.01333 45.4867 5.62 43.7333 7.7 42.48C9.79333 41.2267 12.28 40.6 15.16 40.6C18.04 40.6 20.52 41.2267 22.6 42.48C24.6933 43.7333 26.3 45.4867 27.42 47.74C28.5533 49.9933 29.12 52.6133 29.12 55.6C29.12 58.5867 28.5533 61.2067 27.42 63.46C26.3 65.7133 24.6933 67.4667 22.6 68.72C20.52 69.9733 18.04 70.6 15.16 70.6ZM15.16 65.48C16.9867 65.5067 18.5067 65.1133 19.72 64.3C20.9333 63.4867 21.84 62.3333 22.44 60.84C23.0533 59.3467 23.36 57.6 23.36 55.6C23.36 53.6 23.0533 51.8667 22.44 50.4C21.84 48.9333 20.9333 47.7933 19.72 46.98C18.5067 46.1667 16.9867 45.7467 15.16 45.72C13.3333 45.6933 11.8133 46.0867 10.6 46.9C9.38667 47.7133 8.47333 48.8667 7.86 50.36C7.26 51.8533 6.96 53.6 6.96 55.6C6.96 57.6 7.26 59.3333 7.86 60.8C8.47333 62.2667 9.38667 63.4067 10.6 64.22C11.8133 65.0333 13.3333 65.4533 15.16 65.48ZM30.3125 70V65.48C31.0992 65.6267 31.7058 65.62 32.1325 65.46C32.5592 65.2867 32.8792 64.9533 33.0925 64.46C33.3192 63.9533 33.5125 63.2667 33.6725 62.4C33.8858 61.2533 34.0725 59.9133 34.2325 58.38C34.4058 56.8467 34.5525 55.2267 34.6725 53.52C34.7925 51.8 34.8992 50.0933 34.9925 48.4H51.3125V70H45.8725V53.48H39.7525C39.6992 54.1733 39.6258 55 39.5325 55.96C39.4525 56.92 39.3592 57.92 39.2525 58.96C39.1592 59.9867 39.0525 60.9733 38.9325 61.92C38.8125 62.8533 38.6858 63.6533 38.5525 64.32C38.2325 66.0133 37.7592 67.3467 37.1325 68.32C36.5058 69.2933 35.6458 69.9133 34.5525 70.18C33.4592 70.46 32.0458 70.4 30.3125 70ZM75.3619 48.4V70H70.1619V56.8L60.4019 70H56.0819V48.4H61.2819V61.16L71.0819 48.4H75.3619ZM80.1256 70V48.4H84.5256L92.0456 62.4L99.5656 48.4H103.966V70H98.7656V59.24L93.0056 70H91.0856L85.3256 59.24V70H80.1256ZM108.74 70V48.4H128.02V70H122.58V53.48H114.18V70H108.74Z" fill="white"/>
<path d="M9.11 89L12.267 84.9465L9.3685 81.08H10.76L13.4165 84.7045V81.08H14.566V84.7045L17.2225 81.08H18.614L15.7155 84.9465L18.8725 89H17.4315L14.566 85.2875V89H13.4165V85.2875L10.5455 89H9.11ZM26.531 89V81.08H25.365L21.4655 86.965V81.08H20.2995V89H21.4655L25.365 83.1095V89H26.531ZM28.0661 89V88.0155C28.2531 88.0338 28.4071 88.0247 28.5281 87.988C28.6528 87.9477 28.7573 87.8707 28.8416 87.757C28.9259 87.6397 28.9974 87.471 29.0561 87.251C29.1184 87.031 29.1789 86.7468 29.2376 86.3985C29.3183 85.9548 29.3861 85.4983 29.4411 85.029C29.4961 84.5597 29.5419 84.094 29.5786 83.632C29.6189 83.1663 29.6519 82.7172 29.6776 82.2845C29.7033 81.8518 29.7234 81.4503 29.7381 81.08H34.9356V89H33.7861V82.1635H30.8161C30.7978 82.4568 30.7758 82.785 30.7501 83.148C30.7244 83.511 30.6933 83.896 30.6566 84.303C30.6199 84.71 30.5741 85.1298 30.5191 85.5625C30.4678 85.9952 30.4018 86.4297 30.3211 86.866C30.2551 87.24 30.1744 87.5773 30.0791 87.878C29.9838 88.1787 29.8554 88.4298 29.6941 88.6315C29.5328 88.8295 29.3219 88.9615 29.0616 89.0275C28.8013 89.0972 28.4694 89.088 28.0661 89ZM40.3349 89.165C39.5429 89.165 38.8682 88.9927 38.3109 88.648C37.7535 88.2997 37.3264 87.8157 37.0294 87.196C36.736 86.5763 36.5894 85.8577 36.5894 85.04C36.5894 84.2223 36.736 83.5037 37.0294 82.884C37.3264 82.2643 37.7535 81.7822 38.3109 81.4375C38.8682 81.0892 39.5429 80.915 40.3349 80.915C41.1232 80.915 41.796 81.0892 42.3534 81.4375C42.9144 81.7822 43.3415 82.2643 43.6349 82.884C43.9282 83.5037 44.0749 84.2223 44.0749 85.04C44.0749 85.8577 43.9282 86.5763 43.6349 87.196C43.3415 87.8157 42.9144 88.2997 42.3534 88.648C41.796 88.9927 41.1232 89.165 40.3349 89.165ZM40.3349 88.0705C40.8959 88.0778 41.3615 87.955 41.7319 87.702C42.1059 87.4453 42.3864 87.0897 42.5734 86.635C42.7604 86.1767 42.8539 85.645 42.8539 85.04C42.8539 84.435 42.7604 83.907 42.5734 83.456C42.3864 83.0013 42.1059 82.6475 41.7319 82.3945C41.3615 82.1415 40.8959 82.0132 40.3349 82.0095C39.7739 82.0022 39.3064 82.125 38.9324 82.378C38.562 82.631 38.2834 82.9867 38.0964 83.445C37.9094 83.9033 37.814 84.435 37.8104 85.04C37.8067 85.645 37.8984 86.1748 38.0854 86.6295C38.2724 87.0805 38.5529 87.4325 38.9269 87.6855C39.3045 87.9385 39.7739 88.0668 40.3349 88.0705ZM45.722 89V81.08H46.888V86.965L50.7875 81.08H51.9535V89H50.7875V83.1095L46.888 89H45.722ZM48.857 80.398C48.5636 80.398 48.2978 80.3265 48.0595 80.1835C47.8211 80.0405 47.6305 79.8498 47.4875 79.6115C47.3445 79.3732 47.273 79.1073 47.273 78.814H48.186C48.186 78.9973 48.252 79.155 48.384 79.287C48.516 79.419 48.6736 79.485 48.857 79.485C49.044 79.485 49.2016 79.419 49.33 79.287C49.462 79.155 49.528 78.9973 49.528 78.814H50.441C50.441 79.1073 50.3695 79.3732 50.2265 79.6115C50.0835 79.8498 49.891 80.0405 49.649 80.1835C49.4106 80.3265 49.1466 80.398 48.857 80.398ZM56.7907 89V81.08H57.9402V84.776L61.2567 81.08H62.6867L59.1832 84.9465L62.9452 89H61.4712L57.9402 85.216V89H56.7907ZM67.1775 89.165C66.3855 89.165 65.7108 88.9927 65.1535 88.648C64.5961 88.2997 64.169 87.8157 63.872 87.196C63.5786 86.5763 63.432 85.8577 63.432 85.04C63.432 84.2223 63.5786 83.5037 63.872 82.884C64.169 82.2643 64.5961 81.7822 65.1535 81.4375C65.7108 81.0892 66.3855 80.915 67.1775 80.915C67.9658 80.915 68.6386 81.0892 69.196 81.4375C69.757 81.7822 70.1841 82.2643 70.4775 82.884C70.7708 83.5037 70.9175 84.2223 70.9175 85.04C70.9175 85.8577 70.7708 86.5763 70.4775 87.196C70.1841 87.8157 69.757 88.2997 69.196 88.648C68.6386 88.9927 67.9658 89.165 67.1775 89.165ZM67.1775 88.0705C67.7385 88.0778 68.2041 87.955 68.5745 87.702C68.9485 87.4453 69.229 87.0897 69.416 86.635C69.603 86.1767 69.6965 85.645 69.6965 85.04C69.6965 84.435 69.603 83.907 69.416 83.456C69.229 83.0013 68.9485 82.6475 68.5745 82.3945C68.2041 82.1415 67.7385 82.0132 67.1775 82.0095C66.6165 82.0022 66.149 82.125 65.775 82.378C65.4046 82.631 65.126 82.9867 64.939 83.445C64.752 83.9033 64.6566 84.435 64.653 85.04C64.6493 85.645 64.741 86.1748 64.928 86.6295C65.115 87.0805 65.3955 87.4325 65.7695 87.6855C66.1471 87.9385 66.6165 88.0668 67.1775 88.0705ZM72.5645 89V81.08H73.604L76.475 87.0365L79.3295 81.08H80.38V88.9945H79.291V83.577L76.7335 89H76.211L73.648 83.577V89H72.5645ZM82.471 89V81.08H88.7685V89H87.619V82.1635H83.6205V89H82.471ZM90.3128 89V88.0155C90.4998 88.0338 90.6538 88.0247 90.7748 87.988C90.8994 87.9477 91.0039 87.8707 91.0883 87.757C91.1726 87.6397 91.2441 87.471 91.3028 87.251C91.3651 87.031 91.4256 86.7468 91.4843 86.3985C91.5649 85.9548 91.6328 85.4983 91.6878 85.029C91.7428 84.5597 91.7886 84.094 91.8253 83.632C91.8656 83.1663 91.8986 82.7172 91.9243 82.2845C91.9499 81.8518 91.9701 81.4503 91.9848 81.08H97.1823V89H96.0328V82.1635H93.0628C93.0444 82.4568 93.0224 82.785 92.9968 83.148C92.9711 83.511 92.9399 83.896 92.9033 84.303C92.8666 84.71 92.8208 85.1298 92.7658 85.5625C92.7144 85.9952 92.6484 86.4297 92.5678 86.866C92.5018 87.24 92.4211 87.5773 92.3258 87.878C92.2304 88.1787 92.1021 88.4298 91.9408 88.6315C91.7794 88.8295 91.5686 88.9615 91.3083 89.0275C91.0479 89.0972 90.7161 89.088 90.3128 89ZM99.2761 89V81.08H104.336V82.1635H100.426V84.3855H103.676V85.469H100.426V87.9165H104.336V89H99.2761ZM106.207 89V81.08H107.356V84.776L110.673 81.08H112.103L108.599 84.9465L112.361 89H110.887L107.356 85.216V89H106.207ZM116.594 89.165C115.802 89.165 115.127 88.9927 114.57 88.648C114.012 88.2997 113.585 87.8157 113.288 87.196C112.995 86.5763 112.848 85.8577 112.848 85.04C112.848 84.2223 112.995 83.5037 113.288 82.884C113.585 82.2643 114.012 81.7822 114.57 81.4375C115.127 81.0892 115.802 80.915 116.594 80.915C117.507 80.915 118.262 81.146 118.86 81.608C119.461 82.07 119.879 82.6915 120.114 83.4725L118.948 83.786C118.794 83.2323 118.519 82.7978 118.123 82.4825C117.73 82.1672 117.221 82.0095 116.594 82.0095C116.033 82.0095 115.565 82.136 115.191 82.389C114.817 82.642 114.535 82.9958 114.344 83.4505C114.157 83.9052 114.064 84.435 114.064 85.04C114.06 85.645 114.152 86.1748 114.339 86.6295C114.529 87.0842 114.812 87.438 115.186 87.691C115.563 87.944 116.033 88.0705 116.594 88.0705C117.221 88.0705 117.73 87.9128 118.123 87.5975C118.519 87.2785 118.794 86.844 118.948 86.294L120.114 86.6075C119.879 87.3885 119.461 88.01 118.86 88.472C118.262 88.934 117.507 89.165 116.594 89.165Z" fill="white"/>
</g>
</svg>
