<svg width="292" height="448" viewBox="0 0 292 448" fill="none" xmlns="http://www.w3.org/2000/svg">
<path d="M13.96 3.03651L277.926 6.96258L273 176.428L272.925 179.001L275.499 179.001L289.474 179.001L288.524 274.501L265.499 274.501L262.999 274.501L262.999 277.001L262.999 363.001L220.499 363.001L217.999 363.001L217.999 365.501L217.999 445.465L12.0486 442.536L14.4991 317.049L14.5488 314.501L11.9995 314.501L3.00002 314.501L3.00002 267.501L11.9995 267.501L14.4995 267.501L14.4995 265.001L14.4995 179.501L14.4995 177.001L11.9995 177.001L3.54855 177.001L4.45147 130.5L9.49986 130.5L11.9606 130.499L11.9992 128.039L13.96 3.03651Z" fill="#FF0000" fill-opacity="0.3" stroke="#FF0000" stroke-width="5"/>
</svg>
