<svg width="64" height="64" viewBox="0 0 64 64" fill="none" xmlns="http://www.w3.org/2000/svg">
<g clip-path="url(#clip0_112_298)">
<path d="M64 42.0005C64.0059 41.1029 63.7701 40.2199 63.3179 39.4445C62.8656 38.669 62.2131 38.0293 61.4288 37.5922C57.1181 35.4479 52.396 34.2581 47.584 34.1034L40.4987 26.9224C39.5893 25.997 38.5048 25.2619 37.3083 24.7602C36.112 24.2584 34.8275 24 33.5301 24H22.3091C20.6159 24 18.9406 24.3458 17.3859 25.0162C15.8311 25.6866 14.4297 26.6674 13.2675 27.8987L7.38667 34.1034H4.51173C3.31539 34.1034 2.168 34.5786 1.32193 35.4245C0.475851 36.2703 0.000353555 37.4175 0 38.6138V50.6367L6.67813 52.3239C6.97128 53.7306 7.72749 54.9983 8.82595 55.9247C9.9244 56.8509 11.3017 57.3821 12.7376 57.4335C14.1735 57.485 15.5852 57.0533 16.747 56.2079C17.9089 55.3626 18.7537 54.1522 19.1467 52.7701H44.3333C44.7123 54.1133 45.5195 55.2962 46.6323 56.1383C47.7451 56.9807 49.1024 57.4367 50.4981 57.4367C51.8939 57.4367 53.2512 56.9807 54.364 56.1383C55.4768 55.2962 56.284 54.1133 56.6629 52.7701H64V42.0005ZM15.2032 29.7301C16.1183 28.7642 17.2201 27.9943 18.4417 27.4672C19.6633 26.94 20.9794 26.6666 22.3099 26.6635H33.5312C34.4736 26.6664 35.4059 26.8557 36.2747 27.2204C37.1437 27.5851 37.9317 28.118 38.5939 28.7885L43.9232 34.1871H10.9773L15.2032 29.7301ZM12.9813 54.9922C12.1902 54.9922 11.4169 54.7578 10.759 54.3181C10.1013 53.8786 9.58856 53.2538 9.28581 52.5231C8.98307 51.7922 8.90384 50.9879 9.05819 50.2119C9.21253 49.4359 9.59349 48.7231 10.1529 48.1639C10.7123 47.6045 11.425 47.2234 12.201 47.069C12.9769 46.9149 13.7812 46.9941 14.5121 47.2967C15.243 47.5994 15.8677 48.1122 16.3072 48.7701C16.7467 49.4277 16.9813 50.2013 16.9813 50.9922C16.9801 52.0527 16.5582 53.0695 15.8083 53.8194C15.0585 54.5693 14.0418 54.9909 12.9813 54.9922ZM50.4981 54.9922C49.7069 54.9922 48.9336 54.7578 48.2757 54.3181C47.6181 53.8786 47.1053 53.2538 46.8027 52.5231C46.5 51.7922 46.4205 50.9879 46.5749 50.2119C46.7293 49.4359 47.1104 48.7231 47.6696 48.1639C48.2291 47.6045 48.9419 47.2234 49.7179 47.069C50.4936 46.9149 51.2979 46.9941 52.0288 47.2967C52.7597 47.5994 53.3845 48.1122 53.824 48.7701C54.2635 49.4277 54.4981 50.2013 54.4981 50.9922C54.4968 52.0527 54.0752 53.0695 53.3253 53.8194C52.5755 54.5693 51.5587 54.9911 50.4981 54.9922ZM61.3333 50.1034H56.8533C56.6459 48.5653 55.8872 47.1546 54.7187 46.133C53.5501 45.1114 52.0507 44.5485 50.4984 44.5485C48.9461 44.5485 47.4467 45.1114 46.2781 46.133C45.1096 47.1546 44.3509 48.5653 44.1435 50.1034H19.3365C19.1332 48.6098 18.411 47.2351 17.2962 46.2205C16.1815 45.2058 14.7454 44.6154 13.2392 44.553C11.7331 44.4906 10.253 44.9599 9.05803 45.8789C7.86309 46.7978 7.02949 48.1077 6.7032 49.5794L2.66667 48.5591V38.6138C2.66717 38.1242 2.86184 37.6549 3.208 37.3087C3.55416 36.9626 4.02352 36.7679 4.51307 36.7674H47.4667C51.8723 36.9007 56.1976 37.9799 60.1496 39.9314C60.5136 40.1391 60.8152 40.4402 61.0235 40.8039C61.2315 41.1677 61.3387 41.5802 61.3333 41.9991V50.1034Z" fill="#6667AC"/>
<path d="M55.5 18L33.6505 6.2803C32.1615 5.48162 30.3698 5.48901 28.8874 6.29994L7.5 18" stroke="#6667AC" stroke-width="2.5"/>
</g>
<defs>
<clipPath id="clip0_112_298">
<rect width="64" height="64" fill="white"/>
</clipPath>
</defs>
</svg>
