<svg width="64" height="64" viewBox="0 0 64 64" fill="none" xmlns="http://www.w3.org/2000/svg">
<path d="M50.2387 16.9372C50.3859 16.3709 50.4657 15.789 50.4755 15.2039C50.4755 12.4549 49.3835 9.8184 47.4395 7.87451C45.4958 5.93064 42.8593 4.83859 40.1102 4.83859C38.5958 4.83864 37.1009 5.18085 35.7374 5.83965C34.3737 6.49843 33.1766 7.45677 32.2353 8.64312C31.0985 7.31955 29.6897 6.25653 28.1049 5.52651C26.52 4.79648 24.7966 4.41659 23.0518 4.41272C19.7472 4.41272 16.5781 5.72541 14.2414 8.06208C11.9048 10.3987 10.592 13.5679 10.592 16.8725C10.6053 17.9538 10.7618 19.0286 11.0576 20.0687C8.39123 22.779 6.83395 26.3878 6.69139 30.1871C6.54883 33.9863 7.83131 37.7018 10.2871 40.6042C12.7429 43.5069 16.1948 45.3866 19.9653 45.8751C23.7358 46.3634 27.5526 45.425 30.667 43.2442V58.6671H33.3337V43.8711C35.7294 45.2621 38.4497 45.9967 41.2201 46.0005C44.6209 46.0013 47.9326 44.9135 50.6707 42.8967C53.4089 40.8799 55.4297 38.0397 56.4377 34.7917C57.4454 31.5437 57.3875 28.0586 56.2721 24.8459C55.1566 21.6332 53.0425 18.8619 50.2387 16.9372ZM41.2203 43.3338C38.2942 43.3402 35.4499 42.3677 33.1403 40.5709L31.4854 39.2922L29.8489 40.5943C27.6259 42.3762 24.8597 43.3431 22.0107 43.3338C18.6638 43.3295 15.4552 41.9978 13.0886 39.6311C10.7221 37.2645 9.39091 34.0557 9.38697 30.7087C9.38264 27.4261 10.6687 24.2732 12.9678 21.9301L14.0291 20.8415L13.6331 19.3727C13.3974 18.5598 13.2718 17.719 13.2598 16.8727C13.2624 14.2765 14.2948 11.7873 16.1303 9.9512C17.9658 8.11512 20.4547 7.08203 23.051 7.07859C28.3297 7.07859 32.3233 12.8119 32.3233 12.8119C32.3233 12.8119 35.6081 7.50205 40.1099 7.50205C42.1513 7.50485 44.1081 8.31712 45.5515 9.76067C46.9947 11.2042 47.8067 13.1613 47.8091 15.2026C47.7534 16.1904 47.5547 17.1649 47.2193 18.0956L48.7273 19.1357C51.0625 20.7374 52.8238 23.0446 53.7531 25.7195C54.6825 28.3943 54.7313 31.2965 53.8921 34.0013C53.0531 36.7058 51.3705 39.0709 49.0902 40.7501C46.8102 42.4293 44.0523 43.3346 41.2206 43.3335L41.2203 43.3338Z" fill="#6667AC"/>
</svg>
