<svg width="64" height="64" viewBox="0 0 64 64" fill="none" xmlns="http://www.w3.org/2000/svg">
<path d="M50.2377 16.9373C50.3849 16.371 50.4647 15.7892 50.4745 15.204C50.4745 12.455 49.3825 9.81852 47.4385 7.87463C45.4948 5.93076 42.8583 4.83871 40.1092 4.83871C38.5948 4.83876 37.0999 5.18097 35.7364 5.83977C34.3727 6.49855 33.1756 7.45689 32.2343 8.64324C31.0975 7.31967 29.6887 6.25665 28.1039 5.52663C26.5191 4.7966 24.7956 4.41671 23.0508 4.41284C19.7463 4.41284 16.5771 5.72553 14.2404 8.0622C11.9038 10.3988 10.5911 13.568 10.5911 16.8726C10.6043 17.9539 10.7608 19.0287 11.0567 20.0688C8.39026 22.7791 6.83298 26.388 6.69042 30.1873C6.54786 33.9865 7.83033 37.7019 10.2861 40.6043C12.742 43.507 16.1938 45.3867 19.9643 45.8753C23.7348 46.3635 27.5516 45.4251 30.666 43.2443V58.6673H33.3327V43.8713C35.7284 45.2622 38.4487 45.9969 41.2191 46.0006C44.6199 46.0014 47.9316 44.9137 50.6697 42.8969C53.4079 40.8801 55.4287 38.0398 56.4367 34.7918C57.4444 31.5438 57.3865 28.0587 56.2711 24.846C55.1556 21.6333 53.0415 18.862 50.2377 16.9373ZM41.2193 43.3339C38.2932 43.3403 35.4489 42.3678 33.1393 40.571L31.4844 39.2923L29.8479 40.5945C27.6249 42.3763 24.8587 43.3433 22.0097 43.3339C18.6628 43.3297 15.4542 41.9979 13.0877 39.6313C10.7212 37.2646 9.38994 34.0558 9.38599 30.7089C9.38167 27.4262 10.6677 24.2733 12.9668 21.9302L14.0281 20.8416L13.6321 19.3728C13.3964 18.5599 13.2709 17.7191 13.2588 16.8728C13.2615 14.2766 14.2938 11.7874 16.1293 9.95132C17.9649 8.11524 20.4537 7.08215 23.05 7.07871C28.3287 7.07871 32.3223 12.812 32.3223 12.812C32.3223 12.812 35.6071 7.50218 40.1089 7.50218C42.1503 7.50498 44.1071 8.31724 45.5505 9.76079C46.9937 11.2044 47.8057 13.1614 47.8081 15.2027C47.7524 16.1905 47.5537 17.165 47.2183 18.0957L48.7263 19.1358C51.0615 20.7375 52.8228 23.0447 53.7521 25.7196C54.6815 28.3945 54.7303 31.2966 53.8911 34.0014C53.0521 36.7059 51.3695 39.071 49.0892 40.7502C46.8092 42.4294 44.0513 43.3347 41.2196 43.3337L41.2193 43.3339Z" fill="#6667AC"/>
</svg>
