<svg width="64" height="64" viewBox="0 0 64 64" fill="none" xmlns="http://www.w3.org/2000/svg">
<path d="M32 8.10669L0 26.6667L13.3333 34.4001V43.4918C13.3333 44.8961 13.703 46.2755 14.4051 47.4918C15.1073 48.7081 16.1172 49.7179 17.3333 50.4201L32 58.8878L46.6667 50.4201C47.8829 49.7179 48.8928 48.7081 49.5949 47.4918C50.2971 46.2755 50.6667 44.8961 50.6667 43.4918V34.4001L61.3333 28.2134V45.3334H64V26.6667L32 8.10669ZM32 11.1894L56.3861 25.3334H32V28.0001H56.3861L32 42.1441L5.3152 26.6667L32 11.1894ZM48 43.4918C47.9987 44.4275 47.7515 45.3467 47.2835 46.1571C46.8155 46.9678 46.1432 47.6411 45.3333 48.1105L32 55.8086L18.6667 48.1105C17.8569 47.6411 17.1844 46.9678 16.7165 46.1571C16.2485 45.3467 16.0014 44.4275 16 43.4918V35.9467L32 45.2267L48 35.9467V43.4918Z" fill="#6667AC"/>
</svg>
