<svg width="64" height="64" viewBox="0 0 64 64" fill="none" xmlns="http://www.w3.org/2000/svg">
<path d="M61.3327 29.6393L57.0911 18.5459C56.7063 17.5361 56.0236 16.667 55.1337 16.0538C54.2439 15.4405 53.1887 15.1121 52.1079 15.1121H2.66602V48.0004H11.0535C11.3527 49.3257 12.0938 50.51 13.1551 51.3585C14.2164 52.2068 15.5347 52.6689 16.8935 52.6689C18.2522 52.6689 19.5706 52.2068 20.6319 51.3585C21.6932 50.51 22.4343 49.3257 22.7335 48.0004H42.5281C42.8417 49.306 43.5857 50.4681 44.6404 51.2993C45.6948 52.1308 46.9985 52.5828 48.3415 52.5828C49.6844 52.5828 50.9881 52.1308 52.0425 51.2993C53.0972 50.4681 53.8412 49.306 54.1548 48.0004H61.3327V29.6393ZM5.15482 17.6003H52.1079C52.6815 17.5982 53.2423 17.7705 53.7159 18.0943C54.1892 18.4182 54.5532 18.8783 54.7591 19.4137L58.6068 29.4686H5.15482V17.6003ZM16.8929 50.267C16.1809 50.267 15.4849 50.0558 14.8929 49.6604C14.3009 49.2646 13.8395 48.7025 13.567 48.0446C13.2945 47.3868 13.2232 46.663 13.3621 45.9646C13.501 45.2662 13.8439 44.6249 14.3474 44.1214C14.8508 43.618 15.4923 43.275 16.1906 43.1361C16.8889 42.9972 17.6128 43.0686 18.2706 43.3412C18.9284 43.6134 19.4907 44.075 19.8862 44.667C20.2818 45.259 20.4929 45.955 20.4929 46.667C20.4919 47.6214 20.1123 48.5366 19.4374 49.2113C18.7625 49.8862 17.8474 50.266 16.8929 50.267ZM48.3407 50.1836C47.6287 50.1836 46.9327 49.9724 46.3407 49.5769C45.7487 49.1812 45.2871 48.619 45.0148 47.9612C44.7423 47.3033 44.6711 46.5796 44.8097 45.8812C44.9487 45.1828 45.2916 44.5414 45.7951 44.038C46.2985 43.5345 46.9401 43.1916 47.6383 43.0526C48.3367 42.9137 49.0604 42.9852 49.7183 43.2577C50.3761 43.53 50.9383 43.9916 51.334 44.5836C51.7295 45.1756 51.9407 45.8716 51.9407 46.5836C51.9396 47.538 51.5599 48.4532 50.8852 49.1278C50.2103 49.8028 49.2951 50.1825 48.3407 50.1836ZM58.8439 45.5116H54.2327C53.9844 44.1297 53.2583 42.879 52.1812 41.9782C51.1041 41.0777 49.7447 40.5841 48.3407 40.5841C46.9367 40.5841 45.5772 41.0777 44.5001 41.9782C43.4231 42.879 42.6969 44.1297 42.4487 45.5116H22.7764C22.5096 44.147 21.7768 42.918 20.7035 42.0342C19.6303 41.1505 18.2832 40.6673 16.8929 40.6673C15.5027 40.6673 14.1556 41.1505 13.0824 42.0342C12.0091 42.918 11.2763 44.147 11.0095 45.5116H5.15482V31.9577H58.8439V45.5116Z" fill="#6667AC"/>
</svg>
