<svg width="40" height="40" viewBox="0 0 40 40" fill="none" xmlns="http://www.w3.org/2000/svg">
<circle cx="20" cy="20" r="20" fill="#E5E5E5"/>
<path d="M20.0005 8C17.6161 8.00275 15.3301 8.95118 13.6441 10.6372C11.958 12.3233 11.0096 14.6093 11.0068 16.9937C11.0068 23.7563 18.9917 31.021 19.3316 31.3267L20.0005 31.9287L20.6694 31.3267C21.0094 31.021 28.9946 23.7567 28.9946 16.9937C28.9918 14.6092 28.0433 12.3232 26.3572 10.6372C24.6711 8.95114 22.385 8.00273 20.0005 8ZM20.0005 20C19.4072 20 18.8272 19.8241 18.3338 19.4944C17.8405 19.1648 17.456 18.6962 17.2289 18.1481C17.0018 17.5999 16.9424 16.9967 17.0582 16.4147C17.1739 15.8328 17.4597 15.2982 17.8792 14.8787C18.2988 14.4591 18.8333 14.1734 19.4153 14.0576C19.9972 13.9419 20.6004 14.0013 21.1486 14.2284C21.6968 14.4554 22.1653 14.8399 22.495 15.3333C22.8246 15.8266 23.0005 16.4067 23.0005 17C23.0005 17.7957 22.6845 18.5587 22.1219 19.1213C21.5593 19.6839 20.7962 20 20.0005 20Z" fill="#6667AC"/>
</svg>
