<svg width="54" height="54" viewBox="0 0 54 54" fill="none" xmlns="http://www.w3.org/2000/svg">
<circle cx="27" cy="27" r="26" fill="white" stroke="#53BA14" stroke-width="2"/>
<g clip-path="url(#clip0_101_24)">
<path d="M27.0399 13.0155L10.5996 29.4558L23.7989 42.6551L40.2393 26.2148L37.4108 15.8439L27.0399 13.0155ZM38.0048 25.6208L23.7989 39.8267L13.428 29.4558L27.6335 15.2503L35.782 17.4727L38.0048 25.6208ZM30.2572 20.8291C30.0428 21.0435 29.8966 21.3167 29.8375 21.6142C29.7784 21.9116 29.8088 22.2199 29.9247 22.5001C30.0408 22.7803 30.2374 23.0198 30.4896 23.1883C30.7417 23.3567 31.0381 23.4466 31.3414 23.4467C31.6447 23.4466 31.9411 23.3567 32.1932 23.1883C32.4454 23.0198 32.642 22.7803 32.7581 22.5001C32.874 22.2199 32.9044 21.9116 32.8453 21.6142C32.7862 21.3167 32.64 21.0435 32.4256 20.8291C32.1381 20.5416 31.748 20.38 31.3414 20.38C30.9348 20.38 30.5447 20.5416 30.2572 20.8291Z" fill="#6667AC"/>
</g>
<defs>
<clipPath id="clip0_101_24">
<rect width="32" height="32" fill="white" transform="translate(4 26.6274) rotate(-45)"/>
</clipPath>
</defs>
</svg>
