<svg width="36" height="36" viewBox="0 0 36 36" fill="none" xmlns="http://www.w3.org/2000/svg">
<path d="M18 36C27.9411 36 36 27.9411 36 18C36 8.05887 27.9411 0 18 0C8.05887 0 0 8.05887 0 18C0 27.9411 8.05887 36 18 36Z" fill="url(#paint0_linear_39_235)"/>
<path d="M26.7611 10.357L23.5479 26.564C23.5479 26.564 23.0979 27.689 21.8604 27.1476L14.4424 21.4593L11.7424 20.1585L7.20019 18.6328C7.20019 18.6328 6.5041 18.3867 6.43379 17.8453C6.36347 17.3039 7.22129 17.0156 7.22129 17.0156L25.2775 9.93511C25.2775 9.92808 26.7611 9.27417 26.7611 10.357Z" fill="white"/>
<path d="M13.8656 26.3812C13.8656 26.3812 13.6477 26.3601 13.3805 25.5093C13.1133 24.6585 11.7422 20.1585 11.7422 20.1585L22.6477 13.2327C22.6477 13.2327 23.2805 12.853 23.2524 13.2327C23.2524 13.2327 23.3649 13.303 23.0274 13.6124C22.6899 13.9288 14.4633 21.3257 14.4633 21.3257" fill="#D2E4F0"/>
<path d="M17.2832 23.6391L14.3512 26.318C14.3512 26.318 14.1191 26.4938 13.873 26.3813L14.4355 21.4102" fill="#B5CFE4"/>
<defs>
<linearGradient id="paint0_linear_39_235" x1="18" y1="0" x2="18" y2="35.8687" gradientUnits="userSpaceOnUse">
<stop stop-color="#41BCE7"/>
<stop offset="1" stop-color="#22A6DC"/>
</linearGradient>
</defs>
</svg>
