<svg width="54" height="54" viewBox="0 0 54 54" fill="none" xmlns="http://www.w3.org/2000/svg">
<path d="M27.0007 41.6667C29.7532 41.6619 32.426 40.7424 34.599 39.0528C36.7721 37.3635 38.322 34.9998 39.0052 32.3334H14.9964C15.6796 34.9998 17.2295 37.3635 19.4024 39.0528C21.5754 40.7424 24.2481 41.6619 27.0007 41.6667ZM35.3556 34.7334C34.4508 36.1251 33.2124 37.2686 31.7535 38.0603C30.2943 38.852 28.6607 39.2667 27.0007 39.2667C25.3407 39.2667 23.7071 38.852 22.2479 38.0603C20.7888 37.2686 19.5506 36.1251 18.6457 34.7334H35.3556ZM36.4447 18.2163C34.8231 18.2184 33.2681 18.8635 32.1215 20.0102C30.9748 21.1569 30.3297 22.7118 30.3276 24.3334H32.7276C32.7276 23.3478 33.1191 22.4024 33.8161 21.7056C34.5129 21.0087 35.4583 20.6171 36.4439 20.6171C37.4295 20.6171 38.3748 21.0087 39.0716 21.7056C39.7687 22.4024 40.1601 23.3478 40.1601 24.3334H42.5601C42.558 22.712 41.9132 21.1575 40.7668 20.0108C39.6204 18.8641 38.066 18.2188 36.4447 18.2163ZM21.2729 24.3334H23.6729C23.6729 22.711 23.0284 21.1551 21.8812 20.008C20.7341 18.8608 19.1782 18.2163 17.5559 18.2163C15.9335 18.2163 14.3776 18.8608 13.2304 20.008C12.0833 21.1551 11.4388 22.711 11.4388 24.3334H13.8388C13.8388 23.3478 14.2303 22.4024 14.9273 21.7056C15.6242 21.0087 16.5695 20.6171 17.5551 20.6171C18.5407 20.6171 19.4859 21.0087 20.1829 21.7056C20.8798 22.4024 21.2713 23.3478 21.2713 24.3334H21.2729ZM27.0007 0.333374C21.7265 0.333374 16.5708 1.89735 12.1855 4.82751C7.80015 7.75769 4.38223 11.9224 2.36388 16.7952C0.345533 21.6678 -0.182546 27.0296 0.846387 32.2024C1.87532 37.3752 4.41508 42.1267 8.14449 45.8563C11.8739 49.5856 16.6254 52.1254 21.7983 53.1544C26.9711 54.1832 32.3329 53.6552 37.2055 51.6368C42.0783 49.6184 46.243 46.2006 49.1732 41.8152C52.1033 37.4299 53.6673 32.2742 53.6673 27C53.6673 23.4982 52.9774 20.0305 51.6374 16.7952C50.2974 13.5598 48.3332 10.6201 45.8569 8.14385C43.3806 5.66764 40.4409 3.70337 37.2055 2.36324C33.9703 1.02313 30.5025 0.333374 27.0007 0.333374ZM27.0007 51C22.254 51 17.6137 49.5926 13.667 46.9552C9.7202 44.3182 6.64407 40.5699 4.82756 36.1846C3.01105 31.799 2.53577 26.9734 3.46183 22.3179C4.38785 17.6623 6.67364 13.3859 10.0301 10.0295C13.3866 6.67303 17.6629 4.38724 22.3185 3.46119C26.974 2.53516 31.7996 3.01044 36.1852 4.82692C40.5705 6.64343 44.3188 9.71959 46.9558 13.6664C49.5932 17.6131 51.0006 22.2534 51.0006 27C50.9937 33.363 48.4628 39.4635 43.9633 43.9627C39.4641 48.4622 33.3636 50.9931 27.0007 51Z" fill="#6667AC"/>
</svg>
