<svg width="36" height="36" viewBox="0 0 36 36" fill="none" xmlns="http://www.w3.org/2000/svg">
<path d="M18 36C27.9411 36 36 27.9411 36 18C36 8.05887 27.9411 0 18 0C8.05887 0 0 8.05887 0 18C0 27.9411 8.05887 36 18 36Z" fill="#4D76A1"/>
<path fill-rule="evenodd" clip-rule="evenodd" d="M17.3181 25.8961H18.7314C18.7314 25.8961 19.1603 25.8469 19.3782 25.6149C19.5821 25.3969 19.5751 24.9961 19.5751 24.9961C19.5751 24.9961 19.547 23.0977 20.4259 22.8235C21.2907 22.5492 22.4087 24.6516 23.59 25.4672C24.4829 26.0789 25.1579 25.9453 25.1579 25.9453L28.315 25.9031C28.315 25.9031 29.9673 25.8047 29.1798 24.5039C29.1165 24.3984 28.7228 23.5406 26.8314 21.7899C24.8556 19.9547 25.1157 20.25 27.4993 17.0719C28.9548 15.1383 29.5314 13.957 29.3485 13.4508C29.1728 12.9656 28.111 13.0992 28.111 13.0992L24.5532 13.1203C24.5532 13.1203 24.2931 13.0852 24.0962 13.1977C23.9064 13.3102 23.7798 13.5774 23.7798 13.5774C23.7798 13.5774 23.2173 15.075 22.465 16.3477C20.8829 19.0336 20.2501 19.1742 19.99 19.0125C19.3853 18.6188 19.54 17.4516 19.54 16.6149C19.54 14.0133 19.9337 12.9234 18.7736 12.6422C18.3868 12.5508 18.1056 12.4875 17.1142 12.4805C15.8486 12.4664 14.7728 12.4805 14.1611 12.7828C13.7603 12.9797 13.4439 13.4227 13.6337 13.4438C13.8657 13.4719 14.4001 13.5914 14.6814 13.9711C15.047 14.4633 15.0329 15.5813 15.0329 15.5813C15.0329 15.5813 15.2439 18.6469 14.5407 19.0266C14.0626 19.2867 13.4017 18.7524 11.9954 16.3195C11.2712 15.068 10.7298 13.6899 10.7298 13.6899C10.7298 13.6899 10.6243 13.4297 10.4345 13.2961C10.2025 13.1274 9.88606 13.0781 9.88606 13.0781L6.51106 13.0992C6.51106 13.0992 6.00481 13.1133 5.81497 13.3313C5.65325 13.5281 5.80091 13.9359 5.80091 13.9359C5.80091 13.9359 8.44466 20.1234 11.44 23.2383C14.2032 26.0859 17.3181 25.8961 17.3181 25.8961Z" fill="white"/>
</svg>
