<svg width="64" height="64" viewBox="0 0 64 64" fill="none" xmlns="http://www.w3.org/2000/svg">
<path d="M41.333 5.33337H37.333V21.3334H13.7413L11.5679 13.3334H5.33301V16H9.56901L13.8813 32.0942C14.489 34.3622 15.8282 36.3664 17.691 37.7958C19.5539 39.2254 21.8364 40 24.1845 40H41.333C45.9301 40 50.3389 38.1739 53.5895 34.9232C56.8402 31.6726 58.6663 27.2638 58.6663 22.6667C58.6663 18.0696 56.8402 13.6608 53.5895 10.4102C50.3389 7.15956 45.9301 5.33337 41.333 5.33337ZM41.333 37.3334H24.1845C22.4239 37.3312 20.713 36.7496 19.3163 35.6779C17.9195 34.6062 16.9147 33.104 16.457 31.404L14.4733 24H39.9997V8.00004H41.333C45.2229 8.00004 48.9533 9.54527 51.7039 12.2958C54.4543 15.0463 55.9997 18.7769 55.9997 22.6667C55.9997 26.5565 54.4543 30.287 51.7039 33.0376C48.9533 35.788 45.2229 37.3334 41.333 37.3334ZM22.6663 45.3334C21.3478 45.3334 20.0589 45.7243 18.9625 46.4568C17.8662 47.1894 17.0117 48.2307 16.5071 49.4488C16.0026 50.667 15.8705 52.0075 16.1278 53.3006C16.385 54.5939 17.0199 55.7816 17.9523 56.7142C18.8846 57.6464 20.0725 58.2814 21.3657 58.5387C22.659 58.7958 23.9994 58.6638 25.2176 58.1592C26.4357 57.6547 27.477 56.8 28.2095 55.7038C28.9421 54.6075 29.333 53.3187 29.333 52C29.333 50.232 28.6306 48.5363 27.3805 47.2859C26.1302 46.0358 24.4344 45.3334 22.6663 45.3334ZM22.6663 56C21.8752 56 21.1019 55.7654 20.444 55.3259C19.7863 54.8864 19.2736 54.2616 18.9708 53.5307C18.6681 52.7998 18.5888 51.9955 18.7432 51.2198C18.8975 50.4438 19.2785 49.731 19.8379 49.1715C20.3973 48.6123 21.11 48.2312 21.886 48.0768C22.6619 47.9224 23.4662 48.0019 24.1971 48.3046C24.928 48.6072 25.5527 49.12 25.9922 49.7776C26.4318 50.4355 26.6663 51.2088 26.6663 52C26.6651 53.0606 26.2433 54.0774 25.4934 54.8272C24.7436 55.5771 23.7268 55.9987 22.6663 56ZM46.6663 45.3334C45.3477 45.3334 44.0589 45.7243 42.9626 46.4568C41.8663 47.1894 41.0117 48.2307 40.5071 49.4488C40.0026 50.667 39.8706 52.0075 40.1277 53.3006C40.385 54.5939 41.0199 55.7816 41.9522 56.7142C42.8847 57.6464 44.0725 58.2814 45.3658 58.5387C46.6589 58.7958 47.9994 58.6638 49.2175 58.1592C50.4357 57.6547 51.477 56.8 52.2095 55.7038C52.9421 54.6075 53.333 53.3187 53.333 52C53.333 50.232 52.6306 48.5363 51.3805 47.2859C50.1301 46.0358 48.4343 45.3334 46.6663 45.3334ZM46.6663 56C45.8751 56 45.1018 55.7654 44.4439 55.3259C43.7863 54.8864 43.2735 54.2616 42.9709 53.5307C42.6682 52.7998 42.5887 51.9955 42.7431 51.2198C42.8975 50.4438 43.2786 49.731 43.8378 49.1715C44.3973 48.6123 45.1101 48.2312 45.8861 48.0768C46.6618 47.9224 47.4661 48.0019 48.197 48.3046C48.9279 48.6072 49.5527 49.12 49.9922 49.7776C50.4317 50.4355 50.6663 51.2088 50.6663 52C50.665 53.0606 50.2434 54.0774 49.4935 54.8272C48.7437 55.5771 47.7269 55.9987 46.6663 56Z" fill="#6667AC"/>
</svg>
