<svg width="64" height="64" viewBox="0 0 64 64" fill="none" xmlns="http://www.w3.org/2000/svg">
<g clip-path="url(#clip0_112_336)">
<path fill-rule="evenodd" clip-rule="evenodd" d="M57.4932 12.1173C58.9501 10.6276 61.3122 10.6276 62.7691 12.1173L62.9738 12.3265C64.4307 13.8162 64.4307 16.2314 62.9738 17.7211L55.8448 25.0758C54.6407 26.307 52.8182 26.5207 51.3996 25.7167L49.8079 27.3441L55.7176 33.3868C57.5627 35.2734 56.9921 38.4644 54.6135 39.5613L50.9334 41.2585V56.0926L1 56.0926V11.5892L18.5 11.5892V25.576H33.7905L36.0115 20.5408C37.0844 18.1087 40.2051 17.5253 42.0502 19.4119L48.0493 25.5459L49.6707 23.8881C48.9644 22.4574 49.1956 20.6669 50.3643 19.472L57.4932 12.1173ZM26.4992 42.1059H18.5V53.5496H48.4463V42.4055L29.7171 51.0431C26.5846 52.4877 23.3698 49.2005 24.7826 45.9975L26.4992 42.1059ZM48.5611 39.5628H48.4463V39.6158L28.6946 48.7249C27.6504 49.2065 26.5788 48.1107 27.0498 47.043L38.2787 21.5864C38.6363 20.7757 39.6765 20.5812 40.2916 21.2101L53.9589 35.185C54.574 35.8139 54.3838 36.8775 53.5909 37.2432L48.5611 39.5628ZM16.0129 53.5496V42.1059L3.48709 42.1058V53.5496L16.0129 53.5496ZM3.48709 39.5628H27.5938L32.7969 28.1191H3.48709V39.5628ZM3.48709 25.576L16.0129 25.576V14.1323L3.48709 14.1323V25.576ZM61.0105 13.9155C60.5249 13.4189 59.7375 13.4189 59.2519 13.9155L52.1229 21.2702C51.6373 21.7667 51.6373 22.5718 52.1229 23.0684L52.3276 23.2776C52.8132 23.7742 53.6006 23.7742 54.0862 23.2776L61.2151 15.9229C61.7008 15.4263 61.7008 14.6213 61.2151 14.1247L61.0105 13.9155Z" fill="#6667AC"/>
</g>
<defs>
<clipPath id="clip0_112_336">
<rect width="64" height="64" fill="white"/>
</clipPath>
</defs>
</svg>
