<svg width="440" height="270" viewBox="0 0 440 270" fill="none" xmlns="http://www.w3.org/2000/svg">
<path d="M125.297 13.1424L125.297 2.64258L172.296 2.64268L172.296 13.1425L172.296 15.6425L174.796 15.6425L258.796 15.6425L261.296 15.6425L261.296 13.1425L261.296 6.14258L308.296 6.14258L308.296 15.6426L308.296 18.0944L310.748 18.1421L436.753 20.5936L433.2 223.414L352.296 223.414L349.796 223.414L349.796 225.914L349.796 266.611L76.2964 263.174L76.2964 220.643L76.2964 218.236L73.8914 218.144L3.40359 215.464L7.10082 15.6417L122.797 15.6425L125.297 15.6425L125.297 13.1424Z" fill="#FF0000" fill-opacity="0.3" stroke="#FF0000" stroke-width="5"/>
</svg>
