<svg width="64" height="64" viewBox="0 0 64 64" fill="none" xmlns="http://www.w3.org/2000/svg">
<path fill-rule="evenodd" clip-rule="evenodd" d="M41.1373 47.0686L32.0686 56.1373L23 47.0686L24.8738 45.1948L32.0686 52.3896L39.2635 45.1948L41.1373 47.0686Z" fill="#6667AC"/>
<path fill-rule="evenodd" clip-rule="evenodd" d="M23.0004 16.0687L32.069 7.00004L41.1377 16.0687L39.2639 17.9425L32.069 10.7477L24.8742 17.9425L23.0004 16.0687Z" fill="#6667AC"/>
<path d="M30.6504 43H33.3004V53H30.6504V43Z" fill="#6667AC"/>
<path d="M62 2V4.65L2 4.65L2 2L62 2Z" fill="#6667AC"/>
<path d="M62 59V61.65H2L2 59L62 59Z" fill="#6667AC"/>
<path d="M33.4873 20.1373H30.8373L30.8373 10.1373H33.4873V20.1373Z" fill="#6667AC"/>
<path d="M17.2002 38.988L17.2122 36.756L24.7362 30.012C25.3442 29.476 25.7562 28.964 25.9722 28.476C26.1962 27.988 26.3082 27.5 26.3082 27.012C26.3082 26.396 26.1722 25.844 25.9002 25.356C25.6282 24.86 25.2522 24.468 24.7722 24.18C24.2922 23.892 23.7402 23.748 23.1162 23.748C22.4762 23.748 21.9042 23.9 21.4002 24.204C20.9042 24.5 20.5162 24.896 20.2362 25.392C19.9562 25.888 19.8202 26.424 19.8282 27H17.2602C17.2602 25.88 17.5122 24.9 18.0162 24.06C18.5282 23.212 19.2282 22.552 20.1162 22.08C21.0042 21.6 22.0202 21.36 23.1642 21.36C24.2522 21.36 25.2282 21.608 26.0922 22.104C26.9562 22.592 27.6362 23.264 28.1322 24.12C28.6362 24.976 28.8882 25.952 28.8882 27.048C28.8882 27.84 28.7842 28.512 28.5762 29.064C28.3682 29.616 28.0562 30.128 27.6402 30.6C27.2242 31.072 26.7042 31.584 26.0802 32.136L20.2722 37.32L19.9962 36.6H28.8882V38.988H17.2002Z" fill="#6667AC"/>
<path d="M32.1981 39V36.348H34.8501V39H32.1981Z" fill="#6667AC"/>
<path d="M39.5333 39L45.6053 24.108H37.9133V21.72H48.3053V24.108L42.2453 39H39.5333Z" fill="#6667AC"/>
</svg>
