<svg width="40" height="40" viewBox="0 0 40 40" fill="none" xmlns="http://www.w3.org/2000/svg">
<circle cx="20" cy="20" r="20" fill="#E5E5E5"/>
<path d="M20 8C17.6156 8.00275 15.3296 8.95118 13.6436 10.6372C11.9575 12.3233 11.0091 14.6093 11.0063 16.9937C11.0063 23.7563 18.9912 31.021 19.3311 31.3267L20 31.9287L20.6689 31.3267C21.0089 31.021 28.9941 23.7567 28.9941 16.9937C28.9913 14.6092 28.0428 12.3232 26.3567 10.6372C24.6706 8.95114 22.3845 8.00273 20 8ZM20 20C19.4067 20 18.8267 19.8241 18.3333 19.4944C17.84 19.1648 17.4555 18.6962 17.2284 18.1481C17.0013 17.5999 16.9419 16.9967 17.0577 16.4147C17.1734 15.8328 17.4592 15.2982 17.8787 14.8787C18.2983 14.4591 18.8328 14.1734 19.4148 14.0576C19.9967 13.9419 20.5999 14.0013 21.1481 14.2284C21.6963 14.4554 22.1648 14.8399 22.4945 15.3333C22.8241 15.8266 23 16.4067 23 17C23 17.7957 22.684 18.5587 22.1214 19.1213C21.5588 19.6839 20.7957 20 20 20Z" fill="#6667AC"/>
</svg>
