<svg width="44" height="54" viewBox="0 0 44 54" fill="none" xmlns="http://www.w3.org/2000/svg">
<rect width="44" height="54" fill="#E5E5E5"/>
<rect width="1440" height="2177" transform="translate(-140 -363)" fill="white"/>
<path d="M29.9993 2.99992L40.666 13.6666V50.9999H3.33268V2.99992H29.9993ZM31.1041 0.333252H0.666016V53.6666H43.3327V12.5623L31.1036 0.333252H31.1041Z" fill="#6667AC"/>
<path d="M20.0631 42.9369C20.5805 43.4544 21.4195 43.4544 21.9369 42.9369L30.3692 34.5047C30.8866 33.9872 30.8866 33.1483 30.3692 32.6308C29.8517 32.1134 29.0128 32.1134 28.4953 32.6308L21 40.1262L13.5047 32.6308C12.9872 32.1134 12.1483 32.1134 11.6308 32.6308C11.1134 33.1483 11.1134 33.9872 11.6308 34.5047L20.0631 42.9369ZM19.675 14L19.675 42L22.325 42L22.325 14L19.675 14Z" fill="#53BA14"/>
</svg>
