<svg width="64" height="64" viewBox="0 0 64 64" fill="none" xmlns="http://www.w3.org/2000/svg">
<path d="M61.3332 29.6392L57.0916 18.5458C56.7068 17.536 56.0241 16.6669 55.1342 16.0537C54.2444 15.4404 53.1892 15.112 52.1084 15.112H2.6665V48.0003H11.054C11.3531 49.3256 12.0943 50.5099 13.1556 51.3584C14.2169 52.2067 15.5352 52.6688 16.894 52.6688C18.2527 52.6688 19.5711 52.2067 20.6324 51.3584C21.6936 50.5099 22.4348 49.3256 22.734 48.0003H42.5286C42.8422 49.3059 43.5862 50.468 44.6409 51.2992C45.6953 52.1307 46.999 52.5827 48.342 52.5827C49.6849 52.5827 50.9886 52.1307 52.043 51.2992C53.0977 50.468 53.8417 49.3059 54.1553 48.0003H61.3332V29.6392ZM5.1553 17.6002H52.1084C52.682 17.5981 53.2428 17.7704 53.7164 18.0942C54.1897 18.4181 54.5537 18.8782 54.7596 19.4136L58.6073 29.4685H5.1553V17.6002ZM16.8934 50.2669C16.1814 50.2669 15.4854 50.0557 14.8934 49.6603C14.3014 49.2645 13.8399 48.7024 13.5675 48.0445C13.295 47.3867 13.2237 46.6629 13.3626 45.9645C13.5015 45.2661 13.8444 44.6248 14.3479 44.1213C14.8513 43.6179 15.4928 43.2749 16.1911 43.136C16.8894 42.9971 17.6133 43.0685 18.2711 43.3411C18.9289 43.6133 19.4911 44.0749 19.8867 44.6669C20.2823 45.2589 20.4934 45.9549 20.4934 46.6669C20.4924 47.6213 20.1127 48.5365 19.4379 49.2112C18.763 49.8861 17.8479 50.2659 16.8934 50.2669ZM48.3412 50.1835C47.6292 50.1835 46.9332 49.9723 46.3412 49.5768C45.7492 49.1811 45.2876 48.6189 45.0153 47.9611C44.7428 47.3032 44.6716 46.5795 44.8102 45.8811C44.9492 45.1827 45.2921 44.5413 45.7956 44.0379C46.299 43.5344 46.9406 43.1915 47.6388 43.0525C48.3372 42.9136 49.0609 42.9851 49.7188 43.2576C50.3766 43.5299 50.9388 43.9915 51.3345 44.5835C51.73 45.1755 51.9412 45.8715 51.9412 46.5835C51.9401 47.5379 51.5604 48.4531 50.8857 49.1277C50.2108 49.8027 49.2956 50.1824 48.3412 50.1835ZM58.8444 45.5115H54.2332C53.9849 44.1296 53.2588 42.8789 52.1817 41.9781C51.1046 41.0776 49.7452 40.584 48.3412 40.584C46.9372 40.584 45.5777 41.0776 44.5006 41.9781C43.4236 42.8789 42.6974 44.1296 42.4492 45.5115H22.7769C22.51 44.1469 21.7773 42.9179 20.704 42.0341C19.6307 41.1504 18.2837 40.6672 16.8934 40.6672C15.5032 40.6672 14.1561 41.1504 13.0828 42.0341C12.0096 42.9179 11.2768 44.1469 11.01 45.5115H5.1553V31.9576H58.8444V45.5115Z" fill="#6667AC"/>
</svg>
