<svg width="64" height="64" viewBox="0 0 64 64" fill="none" xmlns="http://www.w3.org/2000/svg">
<path d="M50.2382 16.9373C50.3854 16.3709 50.4652 15.7891 50.475 15.204C50.475 12.4549 49.383 9.81846 47.439 7.87457C45.4953 5.9307 42.8588 4.83865 40.1097 4.83865C38.5953 4.8387 37.1004 5.18091 35.7369 5.83971C34.3732 6.49849 33.1761 7.45683 32.2348 8.64318C31.098 7.31961 29.6892 6.25659 28.1044 5.52657C26.5195 4.79654 24.7961 4.41665 23.0513 4.41278C19.7467 4.41278 16.5776 5.72547 14.2409 8.06214C11.9043 10.3988 10.5915 13.568 10.5915 16.8725C10.6048 17.9538 10.7613 19.0286 11.0571 20.0688C8.39074 22.779 6.83346 26.3879 6.6909 30.1872C6.54834 33.9864 7.83082 37.7019 10.2866 40.6043C12.7424 43.5069 16.1943 45.3867 19.9648 45.8752C23.7353 46.3635 27.5521 45.4251 30.6665 43.2443V58.6672H33.3332V43.8712C35.7289 45.2621 38.4492 45.9968 41.2196 46.0005C44.6204 46.0013 47.9321 44.9136 50.6702 42.8968C53.4084 40.88 55.4292 38.0397 56.4372 34.7917C57.4449 31.5437 57.387 28.0587 56.2716 24.8459C55.1561 21.6333 53.042 18.8619 50.2382 16.9373ZM41.2198 43.3339C38.2937 43.3403 35.4494 42.3677 33.1398 40.5709L31.4849 39.2923L29.8484 40.5944C27.6254 42.3763 24.8592 43.3432 22.0102 43.3339C18.6633 43.3296 15.4547 41.9979 13.0882 39.6312C10.7217 37.2645 9.39042 34.0557 9.38648 30.7088C9.38216 27.4261 10.6682 24.2732 12.9673 21.9301L14.0286 20.8416L13.6326 19.3728C13.3969 18.5599 13.2714 17.719 13.2593 16.8728C13.2619 14.2765 14.2943 11.7874 16.1298 9.95126C17.9654 8.11518 20.4542 7.08209 23.0505 7.07865C28.3292 7.07865 32.3228 12.812 32.3228 12.812C32.3228 12.812 35.6076 7.50211 40.1094 7.50211C42.1508 7.50491 44.1076 8.31718 45.551 9.76073C46.9942 11.2043 47.8062 13.1613 47.8086 15.2026C47.7529 16.1904 47.5542 17.1649 47.2188 18.0957L48.7268 19.1357C51.062 20.7374 52.8233 23.0446 53.7526 25.7196C54.682 28.3944 54.7308 31.2965 53.8916 34.0013C53.0526 36.7059 51.37 39.0709 49.0897 40.7501C46.8097 42.4293 44.0518 43.3347 41.2201 43.3336L41.2198 43.3339Z" fill="#6667AC"/>
</svg>
