<svg width="64" height="64" viewBox="0 0 64 64" fill="none" xmlns="http://www.w3.org/2000/svg">
<path d="M21.6007 26.6666H18.6673V29.5999H21.6007V26.6666ZM33.4673 26.6666H30.534V29.5999H33.4673V26.6666ZM45.334 26.6666H42.4007V29.5999H45.334V26.6666ZM21.6007 39.7333H18.6673V42.6666H21.6007V39.7333ZM33.4673 39.7333H30.534V42.6666H33.4673V39.7333ZM45.334 39.7333H42.4007V42.6666H45.334V39.7333ZM48.0007 13.3333V6.66659C48.0007 6.31296 47.8601 5.97381 47.6103 5.72379C47.3601 5.47373 47.0209 5.33325 46.6673 5.33325C46.3137 5.33325 45.9745 5.47373 45.7244 5.72379C45.4745 5.97381 45.334 6.31296 45.334 6.66659V13.3333H18.6673V6.66659C18.6673 6.31296 18.5268 5.97381 18.2768 5.72379C18.0268 5.47373 17.6876 5.33325 17.334 5.33325C16.9804 5.33325 16.6412 5.47373 16.3912 5.72379C16.1411 5.97381 16.0007 6.31296 16.0007 6.66659V13.3333H5.33398V55.9999H58.6673V13.3333H48.0007ZM56.0007 53.3333H8.00065V15.9999H56.0007V53.3333Z" fill="#6667AC"/>
</svg>
