<?xml version="1.0" standalone="no"?>
<!DOCTYPE svg PUBLIC "-//W3C//DTD SVG 20010904//EN"
 "http://www.w3.org/TR/2001/REC-SVG-20010904/DTD/svg10.dtd">
<svg version="1.0" xmlns="http://www.w3.org/2000/svg"
 width="99.000000pt" height="74.000000pt" viewBox="0 0 99.000000 74.000000"
 preserveAspectRatio="xMidYMid meet">

<g transform="translate(0.000000,74.000000) scale(0.100000,-0.100000)"
fill="#7071AB" stroke="none">
<path d="M645 731 c-39 -16 -58 -48 -52 -86 3 -19 2 -35 -4 -35 -26 0 -105
-48 -144 -88 -145 -147 -99 -400 90 -492 41 -21 65 -25 135 -25 98 0 152 20
218 80 95 85 124 239 68 357 -32 67 -98 129 -162 154 -42 16 -44 19 -44 55 0
37 -26 79 -49 79 -5 0 -15 2 -23 4 -7 3 -22 1 -33 -3z m43 -50 c20 -12 11 -56
-12 -56 -27 0 -43 29 -27 49 15 18 21 19 39 7z m-38 -135 c0 -27 22 -40 39
-23 6 6 11 19 11 30 0 16 5 18 33 12 83 -18 174 -105 195 -187 11 -42 8 -48
-25 -48 -35 0 -31 -38 5 -42 22 -2 26 -7 24 -28 -10 -73 -77 -155 -156 -191
-55 -25 -74 -24 -78 4 -2 14 -11 23 -25 25 -19 3 -23 -1 -23 -22 0 -32 -20
-34 -83 -7 -76 33 -156 134 -157 199 0 17 6 22 25 22 18 0 25 5 25 20 0 15 -7
20 -26 20 -25 0 -26 2 -21 37 12 72 90 159 171 190 50 19 66 16 66 -11z"/>
<path d="M657 443 c-4 -3 -7 -39 -7 -80 l0 -73 80 0 c73 0 80 2 80 20 0 18 -7
20 -55 20 l-55 0 0 44 c0 24 -3 51 -6 60 -6 16 -26 21 -37 9z"/>
<path d="M184 605 c-10 -25 9 -37 57 -33 36 2 44 7 44 23 0 17 -8 20 -48 23
-36 2 -49 -1 -53 -13z"/>
<path d="M124 435 c-11 -28 10 -36 87 -33 66 3 74 5 74 23 0 18 -8 20 -78 23
-64 2 -78 0 -83 -13z"/>
<path d="M70 265 c-23 -28 2 -36 111 -33 96 3 104 4 104 23 0 18 -8 20 -101
23 -82 2 -103 0 -114 -13z"/>
<path d="M5 90 c-15 -24 12 -30 146 -30 132 0 139 1 139 20 0 19 -7 20 -139
20 -83 0 -142 -4 -146 -10z"/>
</g>
</svg>
