<svg width="137" height="109" viewBox="0 0 137 109" fill="none" xmlns="http://www.w3.org/2000/svg">
<g opacity="0.3">
<rect x="33.5225" y="47.5625" width="67.1147" height="8.13428" transform="rotate(-45 33.5225 47.5625)" fill="white"/>
<rect width="12.7355" height="8.13428" transform="matrix(-0.707107 -0.707107 -0.707107 0.707107 68.3438 9.00537)" fill="white"/>
<path fill-rule="evenodd" clip-rule="evenodd" d="M14.0001 45.1149L14 45.115L19.7518 50.8668L25.5037 45.1149H14.0001ZM16.7115 42.4035H28.2151L64.8668 5.7518L59.115 0L16.7115 42.4035Z" fill="white"/>
<path fill-rule="evenodd" clip-rule="evenodd" d="M104.91 47.3544L102.671 45.1152H91.1673L99.1583 53.1062L104.91 47.3544ZM86.7313 29.1757L94.5366 36.9809H83.033L80.9796 34.9275L73.5034 42.4037H61.9998L75.2277 29.1757L75.2277 29.1756L80.9795 23.4238L80.9795 23.4239L86.7313 29.1757ZM59.2884 45.1151L59.1489 45.2545L64.9007 51.0063L70.792 45.1151H59.2884Z" fill="white"/>
<path fill-rule="evenodd" clip-rule="evenodd" d="M122.457 41.5324V53.036L82.8639 13.4433L88.6157 7.69155L122.457 41.5324ZM86.6984 5.77428L81.0296 0.105469L75.2778 5.85727L80.9466 11.5261L86.6984 5.77428Z" fill="white"/>
<path fill-rule="evenodd" clip-rule="evenodd" d="M110.779 45.1152H59.1401L51.0059 53.2495H118.913L110.779 45.1152ZM122.457 52.9591V45.1152H114.613L122.457 52.9591Z" fill="white"/>
<rect x="14" y="45.1152" width="25.4874" height="8.13428" fill="white"/>
<rect x="33.6543" y="47.6943" width="67.1147" height="7.9477" transform="rotate(-45 33.6543 47.6943)" fill="white"/>
<path d="M12.5662 108.664C10.1789 108.664 8.11772 108.145 6.38255 107.106C4.65843 106.067 3.32666 104.614 2.38724 102.746C1.45887 100.878 0.994683 98.7065 0.994683 96.2308C0.994683 93.7551 1.45887 91.5834 2.38724 89.7156C3.32666 87.8478 4.65843 86.3945 6.38255 85.3556C8.11772 84.3167 10.1789 83.7973 12.5662 83.7973C14.9534 83.7973 17.0091 84.3167 18.7332 85.3556C20.4684 86.3945 21.8001 87.8478 22.7285 89.7156C23.6679 91.5834 24.1376 93.7551 24.1376 96.2308C24.1376 98.7065 23.6679 100.878 22.7285 102.746C21.8001 104.614 20.4684 106.067 18.7332 107.106C17.0091 108.145 14.9534 108.664 12.5662 108.664ZM12.5662 104.42C14.0803 104.442 15.3402 104.116 16.346 103.442C17.3517 102.768 18.1032 101.812 18.6006 100.574C19.109 99.3364 19.3632 97.8886 19.3632 96.2308C19.3632 94.573 19.109 93.1362 18.6006 91.9205C18.1032 90.7048 17.3517 89.7598 16.346 89.0857C15.3402 88.4115 14.0803 88.0633 12.5662 88.0412C11.052 88.0191 9.7921 88.3452 8.78637 89.0193C7.78063 89.6935 7.02357 90.6495 6.51517 91.8873C6.01783 93.1252 5.76916 94.573 5.76916 96.2308C5.76916 97.8886 6.01783 99.3254 6.51517 100.541C7.02357 101.757 7.78063 102.702 8.78637 103.376C9.7921 104.05 11.052 104.398 12.5662 104.42ZM27.7941 108.167V104.42C28.3025 104.454 28.7336 104.409 29.0872 104.288C29.4409 104.166 29.7393 103.945 29.9824 103.625C30.2366 103.293 30.4577 102.84 30.6456 102.265C30.8334 101.679 31.0103 100.95 31.1761 100.077C31.4413 98.6954 31.6623 97.2421 31.8392 95.7169C32.0271 94.1806 32.1818 92.6776 32.3034 91.2076C32.4249 89.7377 32.5189 88.4004 32.5852 87.1958C32.6515 85.98 32.7012 85.013 32.7344 84.2946H49.014V108.167H44.5048V88.5054H36.8789C36.8347 89.1243 36.7739 89.9311 36.6966 90.9258C36.6302 91.9205 36.5363 93.0202 36.4147 94.2249C36.2932 95.4295 36.1439 96.6784 35.9671 97.9715C35.7903 99.2646 35.5748 100.519 35.3206 101.735C35.0885 102.917 34.8067 103.967 34.4751 104.885C34.1435 105.791 33.7015 106.537 33.1488 107.123C32.6073 107.697 31.9055 108.079 31.0434 108.266C30.1814 108.454 29.0983 108.421 27.7941 108.167ZM75.8529 108.167V84.2946H71.2773L60.8995 100.21V84.2946H56.3239V108.167H60.8995L71.2773 92.2521V108.167H75.8529ZM83.1312 108.167V84.2946H87.1762L95.0674 100.143L102.959 84.2946H107.004V108.167H102.793V93.9099L95.8631 108.167H94.2716L87.342 93.9099V108.167H83.1312ZM114.31 108.167V84.2946H134.004V108.167H129.495V88.5054H118.819V108.167H114.31Z" fill="white"/>
<path d="M2.60286 74L5.74772 69.7411L2.84656 65.6447H4.51763L7.09966 69.422V65.6447H8.49802V69.422L11.08 65.6447H12.7511L9.84996 69.7411L12.9948 74H11.2715L8.49802 70.1995V74H7.09966V70.1995L4.33195 74H2.60286ZM22.25 74V65.6447H20.8342L16.9582 71.534V65.6447H15.5425V74H16.9582L20.8342 68.1106V74H22.25ZM24.9164 74V72.8279C25.1021 72.8395 25.2587 72.826 25.3864 72.7873C25.514 72.7448 25.6204 72.6655 25.7055 72.5494C25.7945 72.4295 25.8718 72.2612 25.9376 72.0446C26.0034 71.8241 26.0672 71.5476 26.1291 71.2149C26.2181 70.7391 26.2915 70.244 26.3496 69.7295C26.4115 69.2112 26.4637 68.7025 26.5062 68.2035C26.5488 67.7006 26.5817 67.2287 26.6049 66.7877C26.6281 66.3467 26.6474 65.9657 26.6629 65.6447H32.2563V74H30.858V66.956H27.9568C27.9375 67.2152 27.9143 67.5285 27.8872 67.896C27.864 68.2596 27.8311 68.6541 27.7885 69.0796C27.7499 69.5051 27.6996 69.9461 27.6377 70.4026C27.5797 70.859 27.5081 71.3077 27.423 71.7487C27.3456 72.151 27.2528 72.5127 27.1445 72.8337C27.0362 73.1509 26.8911 73.414 26.7093 73.6228C26.5314 73.8279 26.2974 73.9652 26.0072 74.0348C25.721 74.1044 25.3574 74.0928 24.9164 74ZM39.0411 74.1741C38.2055 74.1741 37.4899 73.9923 36.8942 73.6287C36.2985 73.2612 35.8401 72.7506 35.519 72.0968C35.2019 71.4431 35.0433 70.6849 35.0433 69.8223C35.0433 68.9597 35.2019 68.2016 35.519 67.5478C35.8401 66.8941 36.2985 66.3854 36.8942 66.0218C37.4899 65.6543 38.2055 65.4706 39.0411 65.4706C39.8766 65.4706 40.5922 65.6543 41.1879 66.0218C41.7875 66.3854 42.2459 66.8941 42.5631 67.5478C42.8841 68.2016 43.0447 68.9597 43.0447 69.8223C43.0447 70.6849 42.8841 71.4431 42.5631 72.0968C42.2459 72.7506 41.7875 73.2612 41.1879 73.6287C40.5922 73.9923 39.8766 74.1741 39.0411 74.1741ZM39.0411 72.8569C39.6019 72.8608 40.0681 72.737 40.4394 72.4856C40.8146 72.2342 41.0951 71.8802 41.2807 71.4238C41.4703 70.9673 41.5651 70.4335 41.5651 69.8223C41.5651 69.2112 41.4703 68.6812 41.2807 68.2325C41.0951 67.7799 40.8146 67.4279 40.4394 67.1765C40.0681 66.925 39.6019 66.7955 39.0411 66.7877C38.4802 66.7839 38.014 66.9076 37.6427 67.1591C37.2713 67.4105 36.9909 67.7644 36.8014 68.2209C36.6157 68.6773 36.5228 69.2112 36.5228 69.8223C36.5228 70.4335 36.6157 70.9654 36.8014 71.418C36.987 71.8667 37.2655 72.2168 37.6369 72.4682C38.0121 72.7196 38.4802 72.8492 39.0411 72.8569ZM45.8242 74V65.6447H47.24V71.534L51.1159 65.6447H52.5317V74H51.1159V68.1106L47.24 74H45.8242ZM49.1722 64.9368C48.8472 64.9368 48.5513 64.8575 48.2844 64.6989C48.0214 64.5403 47.8106 64.3295 47.652 64.0664C47.4934 63.7995 47.4141 63.5036 47.4141 63.1787H48.5049C48.5049 63.3644 48.5687 63.5229 48.6964 63.6545C48.8279 63.7821 48.9865 63.8459 49.1722 63.8459C49.3578 63.8459 49.5145 63.7821 49.6422 63.6545C49.7737 63.5229 49.8394 63.3644 49.8394 63.1787H50.9303C50.9303 63.5036 50.851 63.7995 50.6924 64.0664C50.5338 64.3295 50.321 64.5403 50.0541 64.6989C49.7872 64.8575 49.4932 64.9368 49.1722 64.9368ZM59.7262 74V65.6447H61.1246V69.5206L64.4609 65.6447H66.1784L62.5868 69.7411L66.4221 74H64.6466L61.1246 70.1008V74H59.7262ZM71.9561 74.1741C71.1205 74.1741 70.4049 73.9923 69.8092 73.6287C69.2135 73.2612 68.7551 72.7506 68.4341 72.0968C68.1169 71.4431 67.9583 70.6849 67.9583 69.8223C67.9583 68.9597 68.1169 68.2016 68.4341 67.5478C68.7551 66.8941 69.2135 66.3854 69.8092 66.0218C70.4049 65.6543 71.1205 65.4706 71.9561 65.4706C72.7916 65.4706 73.5072 65.6543 74.1029 66.0218C74.7025 66.3854 75.1609 66.8941 75.4781 67.5478C75.7991 68.2016 75.9597 68.9597 75.9597 69.8223C75.9597 70.6849 75.7991 71.4431 75.4781 72.0968C75.1609 72.7506 74.7025 73.2612 74.1029 73.6287C73.5072 73.9923 72.7916 74.1741 71.9561 74.1741ZM71.9561 72.8569C72.5169 72.8608 72.9831 72.737 73.3544 72.4856C73.7296 72.2342 74.0101 71.8802 74.1958 71.4238C74.3853 70.9673 74.4801 70.4335 74.4801 69.8223C74.4801 69.2112 74.3853 68.6812 74.1958 68.2325C74.0101 67.7799 73.7296 67.4279 73.3544 67.1765C72.9831 66.925 72.5169 66.7955 71.9561 66.7877C71.3952 66.7839 70.929 66.9076 70.5577 67.1591C70.1864 67.4105 69.9059 67.7644 69.7164 68.2209C69.5307 68.6773 69.4379 69.2112 69.4379 69.8223C69.4379 70.4335 69.5307 70.9654 69.7164 71.418C69.902 71.8667 70.1805 72.2168 70.5519 72.4682C70.9271 72.7196 71.3952 72.8492 71.9561 72.8569ZM78.7392 74V65.6447H79.9983L82.8879 71.563L85.7775 65.6447H87.0366V74H85.731V68.6445L83.1664 74H82.6094L80.0506 68.6445V74H78.7392ZM90.2913 74V65.6447H97.0626V74H95.6642V66.956H91.6896V74H90.2913ZM99.7332 74V72.8279C99.9189 72.8395 100.076 72.826 100.203 72.7873C100.331 72.7448 100.437 72.6655 100.522 72.5494C100.611 72.4295 100.689 72.2612 100.754 72.0446C100.82 71.8241 100.884 71.5476 100.946 71.2149C101.035 70.7391 101.108 70.244 101.166 69.7295C101.228 69.2112 101.28 68.7025 101.323 68.2035C101.366 67.7006 101.398 67.2287 101.422 66.7877C101.445 66.3467 101.464 65.9657 101.48 65.6447H107.073V74H105.675V66.956H102.774C102.754 67.2152 102.731 67.5285 102.704 67.896C102.681 68.2596 102.648 68.6541 102.605 69.0796C102.567 69.5051 102.516 69.9461 102.454 70.4026C102.396 70.859 102.325 71.3077 102.24 71.7487C102.162 72.151 102.07 72.5127 101.961 72.8337C101.853 73.1509 101.708 73.414 101.526 73.6228C101.348 73.8279 101.114 73.9652 100.824 74.0348C100.538 74.1044 100.174 74.0928 99.7332 74ZM110.324 74V65.6447H115.72V66.956H111.723V69.0158H115.024V70.3271H111.723V72.6887H115.72V74H110.324ZM118.737 74V65.6447H120.136V69.5206L123.472 65.6447H125.189L121.598 69.7411L125.433 74H123.658L120.136 70.1008V74H118.737ZM130.967 74.1741C130.131 74.1741 129.416 73.9923 128.82 73.6287C128.224 73.2612 127.766 72.7506 127.445 72.0968C127.128 71.4431 126.969 70.6849 126.969 69.8223C126.969 68.9597 127.128 68.2016 127.445 67.5478C127.766 66.8941 128.224 66.3854 128.82 66.0218C129.416 65.6543 130.131 65.4706 130.967 65.4706C131.93 65.4706 132.733 65.7124 133.375 66.1959C134.017 66.6755 134.468 67.3235 134.727 68.1397L133.317 68.5284C133.154 67.983 132.878 67.5575 132.487 67.2519C132.097 66.9424 131.59 66.7877 130.967 66.7877C130.406 66.7877 129.938 66.9134 129.563 67.1649C129.191 67.4163 128.911 67.7702 128.721 68.2267C128.536 68.6793 128.441 69.2112 128.437 69.8223C128.437 70.4335 128.53 70.9673 128.716 71.4238C128.905 71.8764 129.188 72.2284 129.563 72.4798C129.938 72.7312 130.406 72.8569 130.967 72.8569C131.59 72.8569 132.097 72.7022 132.487 72.3928C132.878 72.0833 133.154 71.6578 133.317 71.1162L134.727 71.505C134.468 72.3212 134.017 72.9711 133.375 73.4546C132.733 73.9342 131.93 74.1741 130.967 74.1741Z" fill="white"/>
</g>
</svg>
