<svg width="206" height="42" viewBox="0 0 206 42" fill="none" xmlns="http://www.w3.org/2000/svg">
<rect x="15.291" y="37.2544" width="52.5689" height="6.37134" transform="rotate(-45 15.291 37.2544)" fill="#337C7E"/>
<rect width="9.97533" height="6.37134" transform="matrix(-0.707107 -0.707107 -0.707107 0.707107 42.5664 7.05371)" fill="#6667AC"/>
<path fill-rule="evenodd" clip-rule="evenodd" d="M2.12378 33.2134H11.1342L39.8424 4.50521L35.3372 0L2.12378 33.2134ZM9.01043 35.3372L4.50521 39.8424L0 35.3372L9.01043 35.3372Z" fill="#6667AC"/>
<path fill-rule="evenodd" clip-rule="evenodd" d="M37.5963 33.2134L52.4625 18.3472L56.9678 22.8524L63.0814 28.9661H54.0709L52.4625 27.3576L46.6067 33.2134H37.5963ZM35.4725 35.3372L35.3633 35.4464L39.8685 39.9517L44.4829 35.3372H35.4725ZM60.4423 35.3374H69.4527L71.2067 37.0914L66.7015 41.5966L60.4423 35.3374Z" fill="#6667AC"/>
<path fill-rule="evenodd" clip-rule="evenodd" d="M84.9518 32.531V41.5414L53.94 10.5297L58.4452 6.02444L84.9518 32.531ZM56.9434 4.5227L52.5033 0.0825195L47.998 4.58773L52.4382 9.02792L56.9434 4.5227Z" fill="#757575"/>
<path fill-rule="evenodd" clip-rule="evenodd" d="M75.8044 35.3374H35.3577L28.9863 41.7087H82.1758L75.8044 35.3374ZM84.9519 41.4814V35.3374H78.8079L84.9519 41.4814Z" fill="#757575"/>
<rect y="35.3374" width="19.9635" height="6.37134" fill="#337C7E"/>
<rect x="15.3945" y="37.3579" width="52.5689" height="6.22519" transform="rotate(-45 15.3945 37.3579)" fill="#337C7E"/>
<path d="M108.534 38.4516C106.664 38.4516 105.05 38.0447 103.691 37.231C102.34 36.4172 101.297 35.2789 100.561 33.8159C99.8341 32.3529 99.4705 30.6519 99.4705 28.7127C99.4705 26.7736 99.8341 25.0726 100.561 23.6096C101.297 22.1466 102.34 21.0083 103.691 20.1945C105.05 19.3808 106.664 18.9739 108.534 18.9739C110.404 18.9739 112.014 19.3808 113.365 20.1945C114.724 21.0083 115.767 22.1466 116.494 23.6096C117.23 25.0726 117.598 26.7736 117.598 28.7127C117.598 30.6519 117.23 32.3529 116.494 33.8159C115.767 35.2789 114.724 36.4172 113.365 37.231C112.014 38.0447 110.404 38.4516 108.534 38.4516ZM108.534 35.1274C109.72 35.1447 110.707 34.8893 111.495 34.3613C112.282 33.8332 112.871 33.0844 113.261 32.1148C113.659 31.1453 113.858 30.0113 113.858 28.7127C113.858 27.4142 113.659 26.2889 113.261 25.3366C112.871 24.3844 112.282 23.6442 111.495 23.1162C110.707 22.5881 109.72 22.3154 108.534 22.2981C107.348 22.2808 106.361 22.5362 105.574 23.0642C104.786 23.5923 104.193 24.3411 103.795 25.3107C103.405 26.2802 103.21 27.4142 103.21 28.7127C103.21 30.0113 103.405 31.1366 103.795 32.0889C104.193 33.0411 104.786 33.7813 105.574 34.3093C106.361 34.8374 107.348 35.1101 108.534 35.1274ZM120.462 38.062V35.1274C120.86 35.1534 121.198 35.1187 121.475 35.0235C121.752 34.9283 121.985 34.7551 122.176 34.5041C122.375 34.2444 122.548 33.8895 122.695 33.4393C122.842 32.9805 122.981 32.4092 123.111 31.7253C123.318 30.6432 123.492 29.5048 123.63 28.3102C123.777 27.1069 123.898 25.9296 123.994 24.7783C124.089 23.6269 124.162 22.5795 124.214 21.6359C124.266 20.6836 124.305 19.9262 124.331 19.3635H137.083V38.062H133.551V22.6617H127.578C127.543 23.1465 127.495 23.7784 127.435 24.5575C127.383 25.3366 127.309 26.198 127.214 27.1416C127.119 28.0851 127.002 29.0633 126.863 30.0762C126.725 31.089 126.556 32.0716 126.357 33.0238C126.175 33.9501 125.954 34.7725 125.695 35.491C125.435 36.2008 125.089 36.7851 124.656 37.244C124.232 37.6941 123.682 37.9928 123.007 38.1399C122.332 38.2871 121.483 38.2611 120.462 38.062ZM158.105 38.062V19.3635H154.521L146.392 31.8292V19.3635H142.808V38.062H146.392L154.521 25.5963V38.062H158.105ZM163.806 38.062V19.3635H166.974L173.155 31.7772L179.336 19.3635H182.504V38.062H179.206V26.8948L173.778 38.062H172.532L167.104 26.8948V38.062H163.806ZM188.227 38.062V19.3635H203.653V38.062H200.121V22.6617H191.759V38.062H188.227Z" fill="#232323"/>
<path d="M100.732 10.5664L103.195 7.23054L100.922 4.02192H102.231L104.254 6.98057V4.02192H105.349V6.98057L107.371 4.02192H108.68L106.408 7.23054L108.871 10.5664H107.521L105.349 7.58957V10.5664H104.254V7.58957L102.086 10.5664H100.732ZM116.121 10.5664V4.02192H115.012L111.976 8.63487V4.02192H110.867V10.5664H111.976L115.012 5.95345V10.5664H116.121ZM118.209 10.5664V9.64836C118.354 9.65745 118.477 9.64685 118.577 9.61655C118.677 9.58322 118.76 9.52111 118.827 9.43021C118.897 9.33629 118.957 9.20449 119.009 9.03481C119.06 8.86211 119.11 8.64548 119.159 8.38491C119.229 8.01224 119.286 7.62442 119.332 7.22145C119.38 6.81545 119.421 6.41702 119.454 6.02617C119.488 5.63229 119.513 5.26265 119.532 4.91724C119.55 4.57184 119.565 4.2734 119.577 4.02192H123.958V10.5664H122.863V5.04904H120.591C120.575 5.25204 120.557 5.49746 120.536 5.7853C120.518 6.0701 120.492 6.37915 120.459 6.71243C120.428 7.04572 120.389 7.39112 120.341 7.74864C120.295 8.10616 120.239 8.45763 120.172 8.80303C120.112 9.11814 120.039 9.40143 119.954 9.65291C119.869 9.90135 119.756 10.1074 119.613 10.271C119.474 10.4316 119.291 10.5391 119.063 10.5937C118.839 10.6482 118.554 10.6391 118.209 10.5664ZM129.272 10.7027C128.618 10.7027 128.057 10.5603 127.591 10.2755C127.124 9.9877 126.765 9.58776 126.514 9.07572C126.265 8.56367 126.141 7.96982 126.141 7.29416C126.141 6.61851 126.265 6.02465 126.514 5.51261C126.765 5.00056 127.124 4.60214 127.591 4.31733C128.057 4.0295 128.618 3.88558 129.272 3.88558C129.927 3.88558 130.487 4.0295 130.954 4.31733C131.424 4.60214 131.783 5.00056 132.031 5.51261C132.283 6.02465 132.408 6.61851 132.408 7.29416C132.408 7.96982 132.283 8.56367 132.031 9.07572C131.783 9.58776 131.424 9.9877 130.954 10.2755C130.487 10.5603 129.927 10.7027 129.272 10.7027ZM129.272 9.67108C129.712 9.67411 130.077 9.57716 130.368 9.38022C130.662 9.18328 130.881 8.90605 131.027 8.54852C131.175 8.191 131.249 7.77288 131.249 7.29416C131.249 6.81545 131.175 6.40036 131.027 6.04889C130.881 5.6944 130.662 5.41868 130.368 5.22174C130.077 5.0248 129.712 4.9233 129.272 4.91724C128.833 4.91421 128.468 5.01117 128.177 5.20811C127.886 5.40505 127.667 5.68228 127.518 6.0398C127.373 6.39733 127.3 6.81545 127.3 7.29416C127.3 7.77288 127.373 8.18949 127.518 8.54398C127.664 8.89544 127.882 9.16964 128.173 9.36658C128.467 9.56352 128.833 9.66502 129.272 9.67108ZM134.586 10.5664V4.02192H135.694V8.63487L138.73 4.02192H139.839V10.5664H138.73V5.95345L135.694 10.5664H134.586ZM137.208 3.46746C136.953 3.46746 136.722 3.40535 136.513 3.28112C136.306 3.1569 136.141 2.99177 136.017 2.78574C135.893 2.57668 135.831 2.3449 135.831 2.09039H136.685C136.685 2.23582 136.735 2.36005 136.835 2.46306C136.938 2.56305 137.062 2.61304 137.208 2.61304C137.353 2.61304 137.476 2.56305 137.576 2.46306C137.679 2.36005 137.731 2.23582 137.731 2.09039H138.585C138.585 2.3449 138.523 2.57668 138.399 2.78574C138.274 2.99177 138.108 3.1569 137.899 3.28112C137.69 3.40535 137.459 3.46746 137.208 3.46746ZM145.475 10.5664V4.02192H146.57V7.05784L149.183 4.02192H150.528L147.715 7.23054L150.719 10.5664H149.329L146.57 7.51231V10.5664H145.475ZM155.054 10.7027C154.399 10.7027 153.839 10.5603 153.372 10.2755C152.906 9.9877 152.547 9.58776 152.295 9.07572C152.047 8.56367 151.922 7.96982 151.922 7.29416C151.922 6.61851 152.047 6.02465 152.295 5.51261C152.547 5.00056 152.906 4.60214 153.372 4.31733C153.839 4.0295 154.399 3.88558 155.054 3.88558C155.708 3.88558 156.269 4.0295 156.735 4.31733C157.205 4.60214 157.564 5.00056 157.812 5.51261C158.064 6.02465 158.19 6.61851 158.19 7.29416C158.19 7.96982 158.064 8.56367 157.812 9.07572C157.564 9.58776 157.205 9.9877 156.735 10.2755C156.269 10.5603 155.708 10.7027 155.054 10.7027ZM155.054 9.67108C155.493 9.67411 155.858 9.57716 156.149 9.38022C156.443 9.18328 156.663 8.90605 156.808 8.54852C156.957 8.191 157.031 7.77288 157.031 7.29416C157.031 6.81545 156.957 6.40036 156.808 6.04889C156.663 5.6944 156.443 5.41868 156.149 5.22174C155.858 5.0248 155.493 4.9233 155.054 4.91724C154.614 4.91421 154.249 5.01117 153.959 5.20811C153.668 5.40505 153.448 5.68228 153.3 6.0398C153.154 6.39733 153.081 6.81545 153.081 7.29416C153.081 7.77288 153.154 8.18949 153.3 8.54398C153.445 8.89544 153.663 9.16964 153.954 9.36658C154.248 9.56352 154.614 9.66502 155.054 9.67108ZM160.367 10.5664V4.02192H161.353L163.616 8.6576L165.88 4.02192H166.866V10.5664H165.843V6.37157L163.835 10.5664H163.398L161.394 6.37157V10.5664H160.367ZM169.415 10.5664V4.02192H174.719V10.5664H173.624V5.04904H170.511V10.5664H169.415ZM176.811 10.5664V9.64836C176.956 9.65745 177.079 9.64685 177.179 9.61655C177.279 9.58322 177.362 9.52111 177.429 9.43021C177.499 9.33629 177.559 9.20449 177.611 9.03481C177.662 8.86211 177.712 8.64548 177.761 8.38491C177.83 8.01224 177.888 7.62442 177.933 7.22145C177.982 6.81545 178.023 6.41702 178.056 6.02617C178.089 5.63229 178.115 5.26265 178.133 4.91724C178.152 4.57184 178.167 4.2734 178.179 4.02192H182.56V10.5664H181.465V5.04904H179.192C179.177 5.25204 179.159 5.49746 179.138 5.7853C179.12 6.0701 179.094 6.37915 179.06 6.71243C179.03 7.04572 178.991 7.39112 178.942 7.74864C178.897 8.10616 178.841 8.45763 178.774 8.80303C178.714 9.11814 178.641 9.40143 178.556 9.65291C178.471 9.90135 178.358 10.1074 178.215 10.271C178.076 10.4316 177.892 10.5391 177.665 10.5937C177.441 10.6482 177.156 10.6391 176.811 10.5664ZM185.106 10.5664V4.02192H189.333V5.04904H186.202V6.66244H188.788V7.68956H186.202V9.53929H189.333V10.5664H185.106ZM191.696 10.5664V4.02192H192.791V7.05784L195.405 4.02192H196.75L193.937 7.23054L196.941 10.5664H195.55L192.791 7.51231V10.5664H191.696ZM201.275 10.7027C200.621 10.7027 200.06 10.5603 199.594 10.2755C199.127 9.9877 198.768 9.58776 198.517 9.07572C198.268 8.56367 198.144 7.96982 198.144 7.29416C198.144 6.61851 198.268 6.02465 198.517 5.51261C198.768 5.00056 199.127 4.60214 199.594 4.31733C200.06 4.0295 200.621 3.88558 201.275 3.88558C202.03 3.88558 202.658 4.07494 203.161 4.45368C203.664 4.82938 204.017 5.33688 204.22 5.97618L203.116 6.28068C202.989 5.85347 202.772 5.52018 202.466 5.28083C202.16 5.03844 201.763 4.91724 201.275 4.91724C200.836 4.91724 200.469 5.01571 200.175 5.21265C199.885 5.40959 199.665 5.68683 199.516 6.04435C199.371 6.39884 199.297 6.81545 199.294 7.29416C199.294 7.77288 199.366 8.191 199.512 8.54852C199.66 8.90302 199.882 9.17873 200.175 9.37567C200.469 9.57261 200.836 9.67108 201.275 9.67108C201.763 9.67108 202.16 9.54989 202.466 9.3075C202.772 9.06511 202.989 8.73183 203.116 8.30765L204.22 8.61215C204.017 9.25145 203.664 9.76047 203.161 10.1392C202.658 10.5149 202.03 10.7027 201.275 10.7027Z" fill="#333333"/>
</svg>
