<?xml version="1.0" standalone="no"?>
<!DOCTYPE svg PUBLIC "-//W3C//DTD SVG 20010904//EN"
 "http://www.w3.org/TR/2001/REC-SVG-20010904/DTD/svg10.dtd">
<svg version="1.0" xmlns="http://www.w3.org/2000/svg"
 width="61.000000pt" height="81.000000pt" viewBox="0 0 61.000000 81.000000"
 preserveAspectRatio="xMidYMid meet">

<g transform="translate(0.000000,81.000000) scale(0.100000,-0.100000)"
fill="#7071AB" stroke="none">
<path d="M10 491 l0 -319 66 -82 c55 -68 69 -80 80 -68 7 7 38 45 68 83 l56
70 0 318 0 317 -135 0 -135 0 0 -319z m228 232 l-3 -48 -92 -3 -93 -3 0 51 0
50 96 0 95 0 -3 -47z m0 -110 c3 -22 1 -23 -92 -23 l-96 0 0 25 0 26 93 -3
c87 -3 92 -4 95 -25z m-118 -223 l0 -160 -35 0 -35 0 0 160 0 160 35 0 35 0 0
-160z m120 0 l0 -160 -40 0 -40 0 0 160 0 160 40 0 40 0 0 -160z m-10 -205 c0
-7 -81 -115 -86 -115 -1 0 -24 27 -49 60 l-46 60 90 0 c50 0 91 -2 91 -5z"/>
<path d="M340 405 l0 -405 130 0 130 0 0 405 0 405 -130 0 -130 0 0 -405z
m221 0 l0 -360 -91 -3 -90 -3 0 36 c0 32 2 35 30 35 23 0 30 4 30 20 0 16 -7
20 -30 20 -25 0 -30 4 -30 25 0 21 5 25 30 25 23 0 30 4 30 20 0 16 -7 20 -30
20 -25 0 -30 4 -30 25 0 21 5 25 30 25 23 0 30 5 30 19 0 14 -8 21 -27 23 -20
2 -29 9 -31 26 -3 19 1 22 27 22 24 0 31 4 31 19 0 14 -8 21 -27 23 -22 2 -28
8 -28 28 0 20 6 26 28 28 15 2 27 9 27 17 0 8 -12 15 -27 17 -22 2 -28 8 -28
28 0 20 6 26 28 28 18 2 27 9 27 21 0 12 -8 17 -27 16 -23 0 -28 4 -28 25 0
20 6 26 28 28 19 2 27 9 27 23 0 14 -7 19 -30 19 -26 0 -30 4 -30 28 0 16 3
32 7 36 4 4 45 5 90 4 l84 -3 0 -360z"/>
</g>
</svg>
