<svg width="20" height="20" viewBox="0 0 20 20" fill="none" xmlns="http://www.w3.org/2000/svg">
<path d="M0.11917 5.80769C0.87557 9.25228 2.60546 12.4071 5.10307 14.8969C7.59288 17.3945 10.7477 19.1244 14.1922 19.8808C15.2739 20.0996 16.3983 19.9089 17.3473 19.3456C18.2962 18.7823 19.0022 17.8866 19.328 16.8322L19.8412 15.2283L14.8611 12.7383L12.476 15.1234C10.7878 14.3902 9.24772 13.355 7.93137 12.0685C6.64495 10.7522 5.60971 9.21198 4.87657 7.52379L7.26167 5.13869L4.77167 0.158691L3.16777 0.671891C2.11341 0.997791 1.2177 1.7037 0.65439 2.65268C0.0910795 3.60165 -0.0996604 4.72604 0.11917 5.80769Z" fill="#6667AC"/>
</svg>
