<svg width="28" height="28" viewBox="0 0 28 28" fill="none" xmlns="http://www.w3.org/2000/svg">
<path d="M13.9993 0.666748C11.3623 0.666748 8.7844 1.44873 6.59175 2.91382C4.3991 4.37891 2.69014 6.46128 1.68096 8.89764C0.67179 11.3339 0.40775 14.0149 0.922217 16.6013C1.43668 19.1877 2.70656 21.5634 4.57127 23.4282C6.43596 25.2929 8.81174 26.5627 11.3981 27.0773C13.9845 27.5917 16.6655 27.3277 19.1017 26.3185C21.5381 25.3093 23.6205 23.6003 25.0856 21.4077C26.5507 19.215 27.3327 16.6371 27.3327 14.0001C27.3327 12.2491 26.9877 10.5153 26.3177 8.89764C25.6477 7.27996 24.6656 5.81011 23.4275 4.57199C22.1893 3.33388 20.7195 2.35175 19.1017 1.68168C17.4841 1.01163 15.7503 0.666748 13.9993 0.666748ZM17.7207 16.7787L16.778 17.7214L13.9993 14.9427L11.2207 17.7214L10.278 16.7787L13.0567 14.0001L10.278 11.2214L11.2207 10.2787L13.9993 13.0574L16.778 10.2787L17.7207 11.2214L14.942 14.0001L17.7207 16.7787Z" fill="#C4C4C4"/>
</svg>
