<svg width="36" height="36" viewBox="0 0 36 36" fill="none" xmlns="http://www.w3.org/2000/svg">
<circle cx="18" cy="18" r="15" fill="white"/>
<path fill-rule="evenodd" clip-rule="evenodd" d="M20.0813 12.5899C20.7821 12.7392 21.3193 13.0056 21.7783 13.4353C22.3689 13.993 22.6927 14.668 22.835 15.6378C22.9312 16.27 22.8918 16.5187 22.6676 16.7248C22.4578 16.9166 22.07 16.9237 21.8351 16.7425C21.6644 16.6146 21.611 16.4796 21.5719 16.1137C21.5257 15.6268 21.4402 15.2859 21.2943 14.9698C20.9812 14.2985 20.4297 13.9503 19.4977 13.8367C19.06 13.7832 18.9284 13.7337 18.7861 13.5667C18.5262 13.2576 18.6261 12.7567 18.9852 12.5719C19.1205 12.5044 19.1773 12.4973 19.4763 12.5151C19.6616 12.5258 19.9356 12.5578 20.0813 12.5899ZM19.3236 9.90759C21.4833 10.2237 23.1553 11.2255 24.2513 12.8526C24.867 13.7692 25.2512 14.8455 25.3828 16C25.4289 16.4227 25.4289 17.1937 25.3792 17.3216C25.3327 17.4423 25.1834 17.6057 25.0554 17.6732C24.9168 17.7443 24.6215 17.737 24.4578 17.6518C24.1838 17.5132 24.102 17.2929 24.102 16.6961C24.102 15.7762 23.8635 14.8061 23.4509 14.0529C22.9812 13.1932 22.2981 12.4827 21.4656 11.9888C20.7503 11.5625 19.6937 11.2463 18.7296 11.1682C18.3808 11.1397 18.1887 11.0686 18.0571 10.9159C17.8543 10.685 17.8329 10.3722 18.0037 10.1129C18.1884 9.82603 18.4731 9.77963 19.3236 9.90759ZM10.9446 7.71581C11.0692 7.75856 11.2612 7.85784 11.3715 7.929C12.0473 8.37675 13.9295 10.7817 14.5451 11.9824C14.8972 12.6681 15.0148 13.176 14.9046 13.5526C14.7907 13.9576 14.6022 14.1708 13.7587 14.8492C13.4207 15.1225 13.104 15.4032 13.0542 15.478C12.9263 15.6628 12.823 16.0251 12.823 16.281C12.8267 16.8742 13.2109 17.9508 13.716 18.7785C14.1072 19.4214 14.8081 20.2455 15.5019 20.878C16.3167 21.6242 17.0353 22.1321 17.8467 22.5335C18.8893 23.0521 19.5261 23.1834 19.9921 22.9669C20.1094 22.9134 20.234 22.8426 20.2731 22.8105C20.3085 22.7784 20.5827 22.4446 20.8814 22.075C21.4577 21.3502 21.5893 21.233 21.9845 21.098C22.4862 20.9275 22.9984 20.9737 23.5145 21.2366C23.906 21.4391 24.7598 21.9684 25.3111 22.3521C26.037 22.86 27.5881 24.1248 27.7982 24.3771C28.168 24.8318 28.2322 25.4143 27.9833 26.0575C27.72 26.7359 26.6954 28.0077 25.9802 28.5514C25.3328 29.0416 24.8738 29.2297 24.2688 29.2582C23.7707 29.2829 23.5642 29.2404 22.9275 28.9775C17.9325 26.9207 13.9441 23.8514 10.7775 19.6343C9.12319 17.4319 7.86347 15.1476 7.00256 12.778C6.50081 11.3962 6.47606 10.7958 6.88866 10.0887C7.06669 9.79031 7.82438 9.05147 8.37591 8.63944C9.29391 7.95741 9.71719 7.70512 10.0552 7.63397C10.2864 7.58419 10.6886 7.62328 10.9446 7.71581ZM19.078 7.33219C20.302 7.48491 21.2909 7.77966 22.3762 8.30925C23.4436 8.83153 24.1268 9.32541 25.0304 10.224C25.8773 11.0731 26.3469 11.716 26.845 12.7142C27.5389 14.1067 27.9337 15.7624 28.0012 17.5846C28.0263 18.2062 28.0083 18.3448 27.866 18.5226C27.5957 18.8671 27.0014 18.8103 26.7986 18.423C26.7345 18.295 26.7168 18.1851 26.6954 17.6875C26.6597 16.9237 26.6065 16.4301 26.4997 15.8403C26.0798 13.5276 24.9697 11.6803 23.1978 10.3551C21.7212 9.24666 20.1949 8.70666 18.1955 8.58938C17.5193 8.55028 17.4021 8.52553 17.2491 8.40825C16.9644 8.18437 16.9501 7.65872 17.224 7.41347C17.3914 7.26075 17.5087 7.23937 18.0886 7.25709C18.3915 7.26806 18.8362 7.30378 19.078 7.33219ZM18 0C27.9411 0 36 8.05894 36 18C36 27.9411 27.9411 36 18 36C8.05894 36 0 27.9411 0 18C0 8.05894 8.05894 0 18 0Z" fill="#7F4DA0"/>
</svg>
