<svg width="64" height="64" viewBox="0 0 64 64" fill="none" xmlns="http://www.w3.org/2000/svg">
<path d="M53.2657 30.6667C52.9425 25.4861 50.7388 20.6018 47.0684 16.9315C43.398 13.2611 38.5137 11.0573 33.3332 10.7341V2.66666H30.6665V10.7341C25.4859 11.0573 20.6017 13.2611 16.9313 16.9315C13.261 20.6018 11.0572 25.4861 10.734 30.6667H2.6665V33.3333H10.734C11.0572 38.5139 13.261 43.3981 16.9313 47.0685C20.6017 50.7389 25.4859 52.9427 30.6665 53.2659V61.3333H33.3332V53.2659C38.5137 52.9427 43.398 50.7389 47.0684 47.0685C50.7388 43.3981 52.9425 38.5139 53.2657 33.3333H61.3332V30.6667H53.2657ZM31.9998 50.6667C28.3078 50.6667 24.6989 49.572 21.6292 47.5208C18.5595 45.4696 16.1669 42.5544 14.7541 39.1435C13.3412 35.7325 12.9716 31.9792 13.6918 28.3584C14.4121 24.7373 16.1899 21.4112 18.8005 18.8007C21.4111 16.1901 24.7372 14.4123 28.3582 13.692C31.979 12.9717 35.7324 13.3414 39.1433 14.7542C42.5542 16.1671 45.4694 18.5596 47.5206 21.6293C49.5718 24.6991 50.6665 28.308 50.6665 32C50.6609 36.9491 48.6924 41.6936 45.1929 45.1931C41.6934 48.6925 36.9489 50.6611 31.9998 50.6667ZM31.9998 30C31.6044 30 31.2177 30.1173 30.8886 30.3371C30.5598 30.5568 30.3036 30.8691 30.1521 31.2347C30.0006 31.6 29.9612 32.0021 30.0382 32.3901C30.1156 32.7781 30.306 33.1344 30.5857 33.4141C30.8654 33.6939 31.2217 33.8843 31.6097 33.9616C31.9977 34.0387 32.3998 33.9992 32.7652 33.8477C33.1308 33.6963 33.443 33.44 33.6628 33.1112C33.8825 32.7821 33.9998 32.3955 33.9998 32C33.9998 31.4696 33.7892 30.9608 33.414 30.5859C33.039 30.2107 32.5302 30 31.9998 30Z" fill="#6667AC"/>
</svg>
