<svg width="40" height="40" viewBox="0 0 40 40" fill="none" xmlns="http://www.w3.org/2000/svg">
<circle cx="20" cy="20" r="20" fill="#E5E5E5"/>
<path d="M31.9368 25V20.87C31.9371 20.5018 31.8358 20.1406 31.644 19.8263C31.4523 19.5119 31.1775 19.2566 30.85 19.0883C29.552 18.4428 28.1347 18.0723 26.6868 18L23.98 14.7518C23.6046 14.3013 23.1347 13.9389 22.6037 13.6901C22.0726 13.4414 21.4934 13.3125 20.907 13.3125H16.62C15.9512 13.3124 15.2908 13.4615 14.6868 13.7487C14.0828 14.036 13.5505 14.4542 13.1285 14.9731L10.6667 18H9.8758C9.37831 18 8.90119 18.1976 8.54941 18.5494C8.19763 18.9012 8 19.3783 8 19.8758V24.5L10.0558 24.8246C10.1804 25.4964 10.5313 26.1053 11.0501 26.55C11.5688 26.9947 12.2242 27.2484 12.9072 27.2689C13.5901 27.2894 14.2595 27.0754 14.804 26.6627C15.3485 26.2499 15.7353 25.6631 15.9 25H24.218C24.3782 25.6482 24.7509 26.224 25.2766 26.6356C25.8023 27.0472 26.4507 27.2709 27.1183 27.2709C27.786 27.2709 28.4344 27.0472 28.9601 26.6356C29.4858 26.224 29.8585 25.6482 30.0187 25H31.9368ZM14.6025 16.1719C14.8459 15.8716 15.1534 15.6295 15.5025 15.4635C15.8516 15.2975 16.2334 15.2117 16.62 15.2125H20.907C21.2149 15.2121 21.5191 15.2796 21.798 15.4102C22.0768 15.5408 22.3235 15.7313 22.5203 15.9681L24.2136 18H13.1157L14.6025 16.1719ZM13 25.5708C12.7429 25.5708 12.4915 25.4946 12.2778 25.3517C12.064 25.2089 11.8974 25.0058 11.799 24.7683C11.7006 24.5307 11.6748 24.2694 11.725 24.0172C11.7751 23.765 11.899 23.5334 12.0808 23.3516C12.2626 23.1698 12.4942 23.0459 12.7464 22.9958C12.9986 22.9456 13.2599 22.9714 13.4975 23.0698C13.735 23.1682 13.9381 23.3348 14.0809 23.5486C14.2238 23.7623 14.3 24.0137 14.3 24.2708C14.2996 24.6155 14.1625 24.9459 13.9188 25.1896C13.6751 25.4333 13.3447 25.5704 13 25.5708ZM27.1183 25.5708C26.8612 25.5708 26.6098 25.4946 26.3961 25.3517C26.1823 25.2089 26.0157 25.0058 25.9173 24.7683C25.8189 24.5307 25.7931 24.2694 25.8433 24.0172C25.8934 23.765 26.0173 23.5334 26.1991 23.3516C26.3809 23.1698 26.6125 23.0459 26.8647 22.9958C27.1169 22.9456 27.3782 22.9714 27.6158 23.0698C27.8533 23.1682 28.0564 23.3348 28.1992 23.5486C28.3421 23.7623 28.4183 24.0137 28.4183 24.2708C28.4179 24.6155 28.2808 24.9459 28.0371 25.1896C27.7934 25.4333 27.463 25.5704 27.1183 25.5708Z" fill="#6667AC"/>
</svg>
