<svg width="40" height="40" viewBox="0 0 40 40" fill="none" xmlns="http://www.w3.org/2000/svg">
<rect width="40" height="40" fill="#E5E5E5"/>
<g clip-path="url(#clip0_0_1)">
<rect width="1440" height="2460" transform="translate(-131 -431)" fill="white"/>
<circle cx="20" cy="20" r="20" fill="#E5E5E5"/>
<g clip-path="url(#clip1_0_1)">
<path d="M20.2804 9.76155L7.9502 22.0918L17.8497 31.9913L30.1799 19.661L28.0586 11.8829L20.2804 9.76155ZM24.4611 17.3895C24.2723 17.5783 24.0318 17.7069 23.7699 17.759C23.508 17.811 23.2366 17.7844 22.9899 17.6821C22.7432 17.58 22.5324 17.407 22.384 17.185C22.2357 16.963 22.1565 16.7019 22.1565 16.4349C22.1565 16.1679 22.2357 15.9069 22.384 15.6849C22.5324 15.4629 22.7432 15.2899 22.9899 15.1877C23.2366 15.0855 23.508 15.0588 23.7699 15.1109C24.0318 15.163 24.2723 15.2916 24.4611 15.4803C24.7143 15.7335 24.8566 16.0769 24.8566 16.4349C24.8566 16.793 24.7143 17.1364 24.4611 17.3895Z" fill="#6667AC"/>
</g>
</g>
<defs>
<clipPath id="clip0_0_1">
<rect width="1440" height="2460" fill="white" transform="translate(-131 -431)"/>
</clipPath>
<clipPath id="clip1_0_1">
<rect width="24" height="24" fill="white" transform="translate(3 19.9705) rotate(-45)"/>
</clipPath>
</defs>
</svg>
